<svg width="18" height="17" viewBox="0 0 18 17" fill="none" xmlns="http://www.w3.org/2000/svg">
<path d="M1.125 0.625H16.875C17.12 0.625 17.3271 0.709583 17.4963 0.87875C17.6654 1.04792 17.75 1.255 17.75 1.5V15.5C17.75 15.745 17.6654 15.9521 17.4963 16.1213C17.3271 16.2904 17.12 16.375 16.875 16.375H1.125C0.88 16.375 0.672917 16.2904 0.50375 16.1213C0.334583 15.9521 0.25 15.745 0.25 15.5V1.5C0.25 1.255 0.334583 1.04792 0.50375 0.87875C0.672917 0.709583 0.88 0.625 1.125 0.625ZM2 2.375V14.625H16V2.375H2ZM4.625 9.375H6.375V12.875H4.625V9.375ZM8.125 4.125H9.875V12.875H8.125V4.125ZM11.625 6.75H13.375V12.875H11.625V6.75Z" fill="white"/>
</svg>
