<svg width="248" height="195" viewBox="0 0 248 195" fill="none" xmlns="http://www.w3.org/2000/svg">
<path d="M176 0.5C175.448 0.499999 175 0.947714 175 1.5C175 2.05228 175.448 2.5 176 2.5V0.5ZM245.26 43.3435L244.449 42.7592L245.26 43.3435ZM245.26 141.542L244.365 141.096L245.26 141.542ZM5.12009 194.475C5.3825 194.961 5.98918 195.142 6.47514 194.88L14.3943 190.604C14.8803 190.341 15.0615 189.735 14.7991 189.249C14.5367 188.763 13.93 188.581 13.4441 188.844L6.40477 192.645L2.60366 185.606C2.34125 185.12 1.73457 184.938 1.24861 185.201C0.762647 185.463 0.581425 186.07 0.843837 186.556L5.12009 194.475ZM176 1.5V2.5C190.479 2.50002 209.562 10.1331 224.1 19.1921C231.359 23.715 237.403 28.5435 241.133 32.8702C243.002 35.0382 244.239 37.0225 244.791 38.7303C245.335 40.415 245.188 41.7324 244.449 42.7592L245.26 43.3435L246.072 43.9278C247.29 42.2357 247.369 40.2062 246.694 38.1157C246.026 36.0484 244.6 33.829 242.647 31.5643C238.735 27.0258 232.506 22.0732 225.158 17.4947C210.483 8.35085 191.021 0.500018 176 0.5V1.5ZM245.26 43.3435L244.449 42.7592C240.503 48.2388 233.184 49.7695 223.654 49.216C214.167 48.6649 202.925 46.0803 191.545 43.7954C180.232 41.524 168.789 39.5516 159.112 40.3433C149.39 41.1389 141.265 44.749 136.909 53.7842L137.81 54.2184L138.711 54.6526C142.649 46.4837 149.966 43.0984 159.275 42.3367C168.632 41.5711 179.811 43.4794 191.152 45.7563C202.425 48.0198 213.869 50.6509 223.538 51.2126C233.166 51.7718 241.475 50.3121 246.072 43.9278L245.26 43.3435ZM137.81 54.2184L136.909 53.7842C134.678 58.4137 135.141 62.7657 137.589 66.8028C139.996 70.7722 144.304 74.4208 149.738 77.8578C160.611 84.7355 176.443 91.0361 192.058 97.4001C207.742 103.792 223.208 110.248 233.577 117.459C238.762 121.065 242.568 124.79 244.519 128.693C246.44 132.533 246.599 136.607 244.365 141.096L245.26 141.542L246.155 141.987C248.668 136.937 248.511 132.203 246.308 127.798C244.137 123.456 240.014 119.499 234.719 115.817C224.131 108.454 208.437 101.916 192.813 95.548C177.119 89.1519 161.492 82.9266 150.807 76.1676C145.461 72.7862 141.465 69.3386 139.299 65.7659C137.174 62.261 136.796 58.6251 138.711 54.6526L137.81 54.2184ZM245.26 141.542L244.365 141.096C240.945 147.969 235.665 151.2 228.835 151.986C221.916 152.783 213.39 151.067 203.624 147.888C193.875 144.715 183.021 140.131 171.462 135.289C159.92 130.455 147.695 125.373 135.268 121.241C110.442 112.987 84.6064 108.452 61.5671 117.4C38.4705 126.37 18.4673 148.769 5.04184 193.714L6 194L6.95816 194.286C20.2862 149.668 39.9864 127.926 62.2911 119.264C84.6531 110.579 109.917 114.92 134.637 123.139C146.982 127.244 159.141 132.297 170.689 137.134C182.22 141.964 193.161 146.586 203.005 149.79C212.832 152.988 221.699 154.821 229.063 153.973C236.518 153.115 242.413 149.508 246.155 141.987L245.26 141.542Z" fill="#F2F827"/>
</svg>
