<svg width="18" height="18" viewBox="0 0 18 18" fill="none" xmlns="http://www.w3.org/2000/svg">
<path d="M8.80682 17.7041C7.61682 17.7041 6.47932 17.4766 5.39432 17.0216C4.35599 16.5783 3.43141 15.9512 2.62057 15.1404C1.80974 14.3295 1.18266 13.4049 0.739324 12.3666C0.284324 11.2816 0.0568237 10.1441 0.0568237 8.9541C0.0568237 7.7641 0.284324 6.6266 0.739324 5.5416C1.18266 4.50327 1.80974 3.57868 2.62057 2.76785C3.43141 1.95702 4.35599 1.32994 5.39432 0.886602C6.47932 0.431601 7.61682 0.204102 8.80682 0.204102C9.99682 0.204102 11.1343 0.431601 12.2193 0.886602C13.2577 1.32994 14.1822 1.95702 14.9931 2.76785C15.8039 3.57868 16.431 4.50327 16.8743 5.5416C17.3293 6.6266 17.5568 7.7641 17.5568 8.9541C17.5568 10.1441 17.3293 11.2816 16.8743 12.3666C16.431 13.4049 15.8039 14.3295 14.9931 15.1404C14.1822 15.9512 13.2577 16.5783 12.2193 17.0216C11.1343 17.4766 9.99682 17.7041 8.80682 17.7041ZM8.80682 15.9541C10.0785 15.9541 11.2568 15.6333 12.3418 14.9916C13.3918 14.3733 14.226 13.5391 14.8443 12.4891C15.486 11.4041 15.8068 10.2258 15.8068 8.9541C15.8068 7.68244 15.486 6.5041 14.8443 5.4191C14.226 4.3691 13.3918 3.53493 12.3418 2.9166C11.2568 2.27493 10.0785 1.9541 8.80682 1.9541C7.53516 1.9541 6.35682 2.27493 5.27182 2.9166C4.22182 3.53493 3.38766 4.3691 2.76932 5.4191C2.12766 6.5041 1.80682 7.68244 1.80682 8.9541C1.80682 10.2258 2.12766 11.4041 2.76932 12.4891C3.38766 13.5391 4.22182 14.3733 5.27182 14.9916C6.35682 15.6333 7.53516 15.9541 8.80682 15.9541ZM9.68182 8.9541H13.1818V10.7041H7.93182V4.5791H9.68182V8.9541Z" fill="white"/>
</svg>
