<svg width="18" height="18" viewBox="0 0 18 18" fill="none" xmlns="http://www.w3.org/2000/svg">
<path d="M8.80682 17.5063C7.61682 17.5063 6.47932 17.2788 5.39432 16.8238C4.35599 16.3805 3.43141 15.7534 2.62057 14.9426C1.80974 14.1318 1.18266 13.2072 0.739324 12.1688C0.284324 11.0838 0.0568237 9.94635 0.0568237 8.75635C0.0568237 7.56635 0.284324 6.42885 0.739324 5.34385C1.18266 4.30551 1.80974 3.38093 2.62057 2.5701C3.43141 1.75926 4.35599 1.13218 5.39432 0.688848C6.47932 0.233847 7.61682 0.00634766 8.80682 0.00634766C9.99682 0.00634766 11.1343 0.233847 12.2193 0.688848C13.2577 1.13218 14.1822 1.75926 14.9931 2.5701C15.8039 3.38093 16.431 4.30551 16.8743 5.34385C17.3293 6.42885 17.5568 7.56635 17.5568 8.75635C17.5568 9.94635 17.3293 11.0838 16.8743 12.1688C16.431 13.2072 15.8039 14.1318 14.9931 14.9426C14.1822 15.7534 13.2577 16.3805 12.2193 16.8238C11.1343 17.2788 9.99682 17.5063 8.80682 17.5063ZM8.80682 15.7563C10.0785 15.7563 11.2568 15.4355 12.3418 14.7938C13.3918 14.1755 14.226 13.3413 14.8443 12.2913C15.486 11.2063 15.8068 10.028 15.8068 8.75635C15.8068 7.48468 15.486 6.30635 14.8443 5.22135C14.226 4.17135 13.3918 3.33718 12.3418 2.71885C11.2568 2.07718 10.0785 1.75635 8.80682 1.75635C7.53516 1.75635 6.35682 2.07718 5.27182 2.71885C4.22182 3.33718 3.38766 4.17135 2.76932 5.22135C2.12766 6.30635 1.80682 7.48468 1.80682 8.75635C1.80682 10.028 2.12766 11.2063 2.76932 12.2913C3.38766 13.3413 4.22182 14.1755 5.27182 14.7938C6.35682 15.4355 7.53516 15.7563 8.80682 15.7563ZM7.93182 11.3813H9.68182V13.1313H7.93182V11.3813ZM9.68182 9.94635V10.5063H7.93182V9.19385C7.93182 8.94885 8.01641 8.74176 8.18557 8.5726C8.35474 8.40343 8.56182 8.31885 8.80682 8.31885C9.16849 8.31885 9.47766 8.19051 9.73432 7.93385C9.99099 7.67718 10.1193 7.36801 10.1193 7.00635C10.1193 6.64468 9.99099 6.33551 9.73432 6.07885C9.47766 5.82218 9.16849 5.69385 8.80682 5.69385C8.49182 5.69385 8.21474 5.79301 7.97557 5.99135C7.73641 6.18968 7.58182 6.44051 7.51182 6.74385L5.79682 6.41135C5.89016 5.94468 6.08266 5.52468 6.37432 5.15135C6.66599 4.77801 7.02182 4.48343 7.44182 4.2676C7.86182 4.05176 8.31682 3.94385 8.80682 3.94385C9.36682 3.94385 9.88016 4.08093 10.3468 4.3551C10.8135 4.62926 11.1839 4.99968 11.4581 5.46635C11.7322 5.93301 11.8693 6.44635 11.8693 7.00635C11.8693 7.69468 11.6652 8.30718 11.2568 8.84385C10.8485 9.38051 10.3235 9.74801 9.68182 9.94635Z" fill="white"/>
</svg>
