<svg width="20" height="18" viewBox="0 0 20 18" fill="none" xmlns="http://www.w3.org/2000/svg">
<path d="M16.8068 0.193115C17.2852 0.193115 17.7256 0.309782 18.1281 0.543116C18.5306 0.776449 18.8485 1.09437 19.0818 1.49686C19.3152 1.89937 19.4318 2.33978 19.4318 2.81812V4.56812H17.6818V15.0681C17.6818 15.5464 17.5652 15.9869 17.3318 16.3894C17.0985 16.7919 16.7806 17.1098 16.3781 17.3431C15.9756 17.5764 15.5352 17.6931 15.0568 17.6931H2.80682C2.32849 17.6931 1.88807 17.5764 1.48557 17.3431C1.08307 17.1098 0.765157 16.7919 0.531824 16.3894C0.29849 15.9869 0.181824 15.5464 0.181824 15.0681V13.3181H14.1818V15.0681C14.1818 15.2898 14.2547 15.4823 14.4006 15.6456C14.5464 15.8089 14.7302 15.9081 14.9518 15.9431H15.0568C15.2785 15.9431 15.471 15.8702 15.6343 15.7244C15.7977 15.5785 15.8968 15.3948 15.9318 15.1731V15.0681V1.94312H4.55682C4.33516 1.94312 4.14266 2.01603 3.97932 2.16187C3.81599 2.3077 3.71682 2.49145 3.68182 2.71311V2.81812V11.5681H1.93182V2.81812C1.93182 2.33978 2.04849 1.89937 2.28182 1.49686C2.51516 1.09437 2.83307 0.776449 3.23557 0.543116C3.63807 0.309782 4.07849 0.193115 4.55682 0.193115H16.8068Z" fill="white"/>
</svg>
