<svg width="18" height="19" viewBox="0 0 18 19" fill="none" xmlns="http://www.w3.org/2000/svg">
<path d="M8.80682 18.2922C7.61682 18.2922 6.47932 18.0647 5.39432 17.6097C4.35599 17.1664 3.43141 16.5393 2.62057 15.7285C1.80974 14.9177 1.18266 13.9931 0.739324 12.9547C0.284324 11.8697 0.0568237 10.7322 0.0568237 9.54224C0.0568237 8.35224 0.284324 7.21474 0.739324 6.12974C1.18266 5.0914 1.80974 4.16682 2.62057 3.35599C3.43141 2.54515 4.35599 1.91807 5.39432 1.47474C6.47932 1.01974 7.61682 0.792236 8.80682 0.792236C9.99682 0.792236 11.1343 1.01974 12.2193 1.47474C13.2577 1.91807 14.1822 2.54515 14.9931 3.35599C15.8039 4.16682 16.431 5.0914 16.8743 6.12974C17.3293 7.21474 17.5568 8.35224 17.5568 9.54224C17.5568 10.7322 17.3293 11.8697 16.8743 12.9547C16.431 13.9931 15.8039 14.9177 14.9931 15.7285C14.1822 16.5393 13.2577 17.1664 12.2193 17.6097C11.1343 18.0647 9.99682 18.2922 8.80682 18.2922ZM8.80682 16.5422C10.0785 16.5422 11.2568 16.2214 12.3418 15.5797C13.3918 14.9614 14.226 14.1272 14.8443 13.0772C15.486 11.9922 15.8068 10.8139 15.8068 9.54224C15.8068 8.27057 15.486 7.09224 14.8443 6.00724C14.226 4.95724 13.3918 4.12307 12.3418 3.50474C11.2568 2.86307 10.0785 2.54224 8.80682 2.54224C7.53516 2.54224 6.35682 2.86307 5.27182 3.50474C4.22182 4.12307 3.38766 4.95724 2.76932 6.00724C2.12766 7.09224 1.80682 8.27057 1.80682 9.54224C1.80682 10.8139 2.12766 11.9922 2.76932 13.0772C3.38766 14.1272 4.22182 14.9614 5.27182 15.5797C6.35682 16.2214 7.53516 16.5422 8.80682 16.5422ZM7.93182 12.1672H9.68182V13.9172H7.93182V12.1672ZM7.93182 5.16724H9.68182V10.4172H7.93182V5.16724Z" fill="white"/>
</svg>
