<svg viewBox="0 0 10 19" fill="currentColor" xmlns="http://www.w3.org/2000/svg">
<path d="M6.54004 10.8125H8.72754L9.60254 7.3125H6.54004V5.5625C6.54004 5.16583 6.55754 4.88 6.59254 4.705C6.66254 4.425 6.81421 4.20917 7.04754 4.0575C7.32754 3.89417 7.74171 3.8125 8.29004 3.8125H9.60254V0.872499C9.40421 0.849167 9.08921 0.825832 8.65754 0.8025C8.12087 0.7675 7.60171 0.75 7.10004 0.75C6.29504 0.75 5.58629 0.910416 4.97379 1.23125C4.36129 1.55208 3.89171 2.01 3.56504 2.605C3.21504 3.24667 3.04004 3.99917 3.04004 4.8625V7.3125H0.415039V10.8125H3.04004V18.25H6.54004V10.8125Z" fill="currentColor"/>
</svg>
