<svg width="98" height="93" viewBox="0 0 98 93" fill="none" xmlns="http://www.w3.org/2000/svg">
<rect width="98" height="93" fill="#1E1E1E"/>
<rect width="1440" height="8522" transform="translate(-682 -5535)" fill="white"/>
<rect width="1440" height="8522" transform="translate(-682 -5535)" fill="#13191D"/>
<path d="M98 13C98 5.8203 92.1797 0 85 0H34C15.2223 0 0 15.2223 0 34V76C0 85.3888 7.61116 93 17 93H39C71.5848 93 98 66.5848 98 34V13Z" fill="#A8B0B7"/>
<path d="M27.9233 57.6681C29.3121 56.286 30.6505 54.9152 32.0337 53.5896C33.3385 52.3374 34.9878 51.7835 36.721 51.5969C39.1738 51.3341 41.6406 51.204 44.1019 51.0203C45.2135 50.9384 46.2495 51.1927 47.1287 51.8852C48.2991 52.8038 49.6039 53.0554 51.0599 53.0214C53.902 52.9564 56.7496 52.9847 59.5945 53.0186C60.2329 53.0271 60.9105 53.1147 61.4957 53.3521C62.7669 53.8694 63.4361 55.1582 63.2961 56.5517C63.1645 57.8603 62.2797 58.9146 60.9665 59.2226C60.4289 59.347 59.8605 59.3696 59.306 59.3724C55.6688 59.3837 52.0316 59.3781 48.3943 59.3809C48.0219 59.3809 47.6299 59.3385 47.2827 59.4374C47.0755 59.4968 46.8011 59.7936 46.7983 59.9886C46.7955 60.1836 47.0531 60.4493 47.2603 60.568C47.4423 60.6726 47.7139 60.6245 47.9463 60.6245C52.0036 60.6245 56.0608 60.65 60.1181 60.6132C62.5373 60.5906 64.3153 58.94 64.5561 56.5884C64.5953 56.221 64.5981 55.8168 64.4861 55.4748C64.2033 54.6184 64.5813 54.1435 65.2869 53.7902C65.6201 53.6235 65.9225 53.3917 66.2613 53.2391C67.5858 52.6427 68.3754 51.6958 68.6862 50.2063C69.0922 48.2674 70.2346 46.7863 72.0742 45.9836C73.6814 45.2827 75.3698 44.9718 77.1255 45.2657C79.3627 45.6416 80.2167 47.1057 79.1891 49.121C78.2763 50.9129 77.2207 52.6484 76.0615 54.2877C72.8582 58.8185 69.2602 63.0157 65.1861 66.7805C64.9117 67.0349 64.6233 67.2751 64.3433 67.5239C63.0525 68.6714 61.6441 69.4374 59.8353 69.4628C57.6932 69.4911 55.5568 69.7624 53.4176 69.8613C49.2707 70.0507 45.1239 70.1807 40.977 70.3616C40.431 70.3842 40.011 70.2994 39.605 69.8811C35.7914 65.9439 31.9581 62.0236 28.1305 58.0977C28.0745 58.0271 28.0521 57.9281 27.9233 57.6681Z" fill="#13191D"/>
<path d="M24.4624 56.7808C25.0924 57.1991 25.7364 57.4902 26.2096 57.9594C28.304 60.0396 30.3453 62.1736 32.4117 64.2849C34.8029 66.7326 37.2026 69.169 39.591 71.6224C41.047 73.1175 41.0302 73.9344 39.5462 75.4324C38.6558 76.3312 37.771 77.2356 36.8554 78.1118C35.6177 79.2989 34.6937 79.3046 33.4785 78.0694C29.9617 74.494 26.47 70.896 22.9644 67.3064C21.948 66.2663 20.9204 65.2403 19.9123 64.1945C18.7167 62.9565 18.6943 61.987 19.8564 60.7802C20.8336 59.7683 21.8164 58.7621 22.8496 57.8096C23.2808 57.4139 23.8408 57.168 24.4624 56.7808ZM23.362 61.0515C23.2052 61.1956 22.9672 61.3172 22.9728 61.4274C22.9896 61.7242 23.0204 62.1001 23.2024 62.298C24.0788 63.2589 25.0056 64.1747 25.9184 65.1018C26.204 65.3929 26.5288 65.5625 26.8872 65.2374C27.2484 64.9096 27.1196 64.5619 26.8312 64.2652C25.8932 63.2985 24.9496 62.3347 23.992 61.385C23.838 61.2352 23.6 61.173 23.362 61.0515Z" fill="#13191D"/>
<path d="M64.0801 33.3946C64.0801 36.8796 64.0801 40.3646 64.0801 43.8496C64.0801 44.5731 64.0381 44.5166 64.7633 44.5166C65.0209 44.5166 65.2785 44.5053 65.5333 44.5223C65.8749 44.5449 66.0429 44.6947 66.0625 45.0423C66.0877 45.52 66.0905 45.9977 66.0625 46.4753C66.0429 46.8173 65.8301 46.9897 65.4745 47.0208C65.3373 47.0321 65.1973 47.0237 65.0601 47.0237C62.4561 47.0237 59.8521 47.035 57.248 47.0124C56.8196 47.0095 56.5872 47.1537 56.352 47.5042C53.4484 51.8484 47.1707 51.806 44.3175 47.4222C44.1131 47.1113 43.9003 47.0152 43.5531 47.0152C40.949 47.0265 38.345 47.0208 35.741 47.0208C35.5842 47.0208 35.4246 47.0321 35.2678 47.0152C34.9122 46.9784 34.7274 46.8032 34.7106 46.4414C34.6882 45.9835 34.6882 45.5257 34.7134 45.0678C34.733 44.6919 34.8981 44.5421 35.279 44.5194C35.6122 44.5025 35.951 44.5194 36.2842 44.511C36.6818 44.5025 36.6846 44.4968 36.6986 44.1209C36.7042 43.9824 36.6986 43.8411 36.6986 43.7026C36.6986 39.9972 36.6986 36.2945 36.6986 32.5891C36.6986 32.4308 36.6958 32.2697 36.7014 32.1114C36.7182 31.5857 36.819 31.4783 37.3286 31.467C37.8606 31.4557 38.3926 31.4642 38.9274 31.4642C39.9326 31.4642 40.9406 31.4613 41.9458 31.4642C42.6038 31.467 42.685 31.5489 42.685 32.2301C42.6878 34.9972 42.6851 37.7671 42.6878 40.5342C42.6878 41.6902 42.6962 42.8434 42.699 43.9994C42.699 44.0587 42.6962 44.1181 42.6962 44.1774C42.6962 44.3781 42.7382 44.5336 42.9958 44.5081C43.2422 44.4855 43.2059 44.3216 43.1807 44.1605C43.0519 43.338 43.1694 42.5325 43.3459 41.7326C43.3935 41.5206 43.4299 41.2945 43.5251 41.1023C43.8247 40.4918 43.8471 39.8502 43.8443 39.1888C43.8331 36.0232 43.8387 32.8548 43.8387 29.6892C43.8387 29.5704 43.8303 29.4489 43.8415 29.3302C43.8779 28.9854 44.0151 28.8327 44.3483 28.7677C44.4435 28.748 44.5443 28.7508 44.6423 28.7508C46.1011 28.7508 47.5627 28.7451 49.0215 28.7536C49.7327 28.7564 49.8531 28.8836 49.8531 29.5902C49.8559 31.5405 49.8531 33.4935 49.8531 35.4438C49.8531 35.602 49.8307 35.7688 49.8671 35.9186C49.8895 36.0062 50.0043 36.0712 50.0855 36.1362C50.1107 36.156 50.1611 36.1419 50.2003 36.1419C50.9536 36.1899 50.9536 36.1899 50.9536 35.4296C50.9536 32.4817 50.9536 29.5337 50.9536 26.5886C50.9536 26.4501 50.948 26.3087 50.9536 26.1702C50.9788 25.5824 51.1299 25.4128 51.6956 25.4099C53.2356 25.4015 54.7728 25.4015 56.3128 25.4099C56.8252 25.4128 56.9708 25.5767 56.9876 26.0996C56.9988 26.3992 56.9904 26.696 56.9904 26.9956C56.9904 31.3172 56.9876 35.6388 56.9988 39.9604C56.9988 40.2911 57.0632 40.6331 57.1668 40.9468C57.4832 41.905 57.6204 42.8801 57.5644 43.8863C57.556 44.0248 57.5196 44.1718 57.5532 44.3018C57.5728 44.3838 57.696 44.4883 57.7744 44.4883C57.8584 44.4883 58.0012 44.3923 58.0152 44.3159C58.0544 44.1237 58.0376 43.9202 58.0376 43.7224C58.0376 36.8513 58.0432 29.9803 58.032 23.112C58.0292 22.0974 58.1104 21.9108 59.208 21.9363C60.5689 21.9673 61.9297 21.9419 63.2905 21.9447C63.9541 21.9476 64.0773 22.0719 64.0773 22.7531C64.0829 26.3031 64.0829 29.8474 64.0801 33.3946C64.0829 33.3946 64.0829 33.3946 64.0801 33.3946ZM56.8364 43.4963C56.8448 40.0565 54.2212 37.0209 50.5363 36.9022C46.9075 36.7863 43.9143 39.7541 43.8891 43.3747C43.8667 46.8597 46.5491 49.9773 50.3599 49.9745C54.2576 49.9745 56.8028 46.7806 56.8364 43.4963Z" fill="#13191D"/>
<path d="M36.0013 27.1794C35.9621 27.1794 35.8221 27.1879 35.6849 27.1766C35.4133 27.154 35.2537 26.9929 35.2145 26.7244C35.1753 26.4643 35.3405 26.2071 35.6177 26.1478C35.9453 26.0771 36.2785 26.046 36.6117 26.0008C41.4166 25.3338 46.0899 24.1721 50.5251 22.1512C53.5435 20.7747 56.3296 19.0252 58.802 16.7866C58.9784 16.6283 59.1436 16.4559 59.3228 16.3005C59.46 16.1818 59.4516 16.0744 59.3368 15.95C59.1352 15.7324 58.9392 15.5063 58.7404 15.2886C58.1552 14.6442 58.2672 14.2683 59.1184 14.0733C60.4036 13.7765 61.6944 13.491 62.9825 13.1999C63.2513 13.1377 63.5173 13.0642 63.7889 13.0162C64.2761 12.9285 64.5449 13.2027 64.4497 13.703C64.3937 13.9941 64.2929 14.2768 64.2061 14.5622C63.8113 15.8539 63.4137 17.1456 63.0189 18.4373C62.9965 18.5136 62.9797 18.5927 62.9489 18.6634C62.7445 19.1241 62.3721 19.2089 62.0081 18.8641C61.7784 18.6464 61.5824 18.3949 61.364 18.1659C61.0868 17.8748 61.0812 17.8748 60.7592 18.1518C59.0792 19.6131 57.2508 20.8567 55.302 21.9194C52.6027 23.392 49.7523 24.4745 46.7983 25.3027C43.8106 26.1421 40.7754 26.7187 37.6925 27.0437C37.1605 27.0946 36.6285 27.1285 36.0013 27.1794Z" fill="#13191D"/>
<path d="M56.3828 43.4823C56.3744 46.8203 53.6332 49.5732 50.3291 49.5365C47.1147 49.4997 44.3175 47.0012 44.3315 43.4257C44.3483 39.5564 47.5039 37.298 50.4747 37.3404C53.7284 37.3885 56.3912 40.1273 56.3828 43.4823ZM50.4019 37.9227C47.9015 37.7955 44.9027 39.8842 44.8831 43.4766C44.8663 46.4755 47.3611 48.9712 50.3543 48.9768C53.3504 48.9825 55.8424 46.5094 55.8452 43.4992C55.848 40.164 53.0928 37.8351 50.4019 37.9227Z" fill="#13191D"/>
<path d="M49.8923 45.2094C49.8923 45.0709 49.8756 44.9295 49.8952 44.791C49.9736 44.2738 49.786 43.994 49.2875 43.7509C48.5455 43.3891 48.1927 42.6854 48.1843 41.8459C48.1759 40.9556 48.5735 40.2659 49.3379 39.8363C49.6544 39.6582 49.8868 39.5226 49.8672 39.0986C49.8532 38.7962 50.094 38.6323 50.374 38.6294C50.6512 38.6266 50.9088 38.7962 50.8892 39.0873C50.8584 39.5311 51.1048 39.6356 51.4324 39.7911C52.2332 40.1698 52.6224 40.8623 52.6952 41.7357C52.7092 41.8911 52.684 42.0579 52.6364 42.2049C52.558 42.4536 52.32 42.6034 52.0904 42.5638C51.83 42.5214 51.6592 42.3716 51.6312 42.0946C51.62 41.9759 51.6368 41.8544 51.6256 41.7385C51.5892 41.3852 51.4324 41.0941 51.1496 40.8793C51.0264 40.786 50.9312 40.8114 50.9172 40.9867C50.9088 41.0856 50.906 41.1845 50.9088 41.2863C50.9116 41.5435 50.9452 41.8063 50.92 42.0607C50.8584 42.6938 50.9172 43.2422 51.6676 43.4061C53.1264 44.3388 53.0256 46.5293 51.4828 47.3433C51.2056 47.4903 50.9228 47.5779 50.8948 47.9849C50.8864 48.1036 50.6232 48.2647 50.4552 48.2958C50.234 48.3382 49.9932 48.2054 49.9652 47.9623C49.9232 47.5723 49.6487 47.4677 49.3715 47.3122C48.5819 46.8685 48.1787 46.176 48.2039 45.2574C48.2123 44.9126 48.4195 44.7034 48.6995 44.6921C48.9767 44.6808 49.1839 44.8758 49.2399 45.2094C49.2567 45.3083 49.2371 45.4157 49.2707 45.5033C49.3604 45.7209 49.4583 45.9358 49.5787 46.1364C49.6207 46.2043 49.7383 46.224 49.8223 46.2664C49.8447 46.193 49.8784 46.1195 49.884 46.0432C49.8952 45.9047 49.8868 45.7662 49.8868 45.6248C49.8924 45.4892 49.8923 45.3507 49.8923 45.2094ZM50.934 45.2772C50.9424 45.2772 50.9508 45.2772 50.9592 45.2772C50.9592 45.5344 50.9508 45.7916 50.9648 46.0488C50.9704 46.1336 51.0292 46.2156 51.0628 46.2975C51.1468 46.2523 51.2448 46.2269 51.3092 46.1619C51.746 45.7209 51.7656 45.0087 51.3484 44.5508C51.2616 44.4547 51.1356 44.3925 51.0264 44.3162C50.9956 44.4377 50.948 44.5593 50.9396 44.6808C50.9228 44.8815 50.934 45.0793 50.934 45.2772ZM49.8616 41.894C49.8616 41.5944 49.8643 41.2976 49.8587 40.998C49.8559 40.8425 49.7579 40.8482 49.6655 40.9188C49.1223 41.3174 49.1083 42.2642 49.6376 42.6995C49.6796 42.7334 49.7496 42.7645 49.7944 42.7504C49.828 42.7419 49.8587 42.6599 49.8587 42.6119C49.8643 42.3716 49.8616 42.1342 49.8616 41.894Z" fill="#13191D"/>
</svg>
