<svg width="122" height="9" viewBox="0 0 122 9" fill="none" xmlns="http://www.w3.org/2000/svg">
<path d="M5.39789 6C18.9151 4.65275 32.4323 3.30549 40.8406 2.61145C49.249 1.91742 52.1388 1.91742 54.0937 2.10988C56.0485 2.30234 56.9807 2.68727 67.762 2.9818C78.5433 3.27633 99.1453 3.4688 120.372 3.66709" stroke="#F2F827" stroke-width="2" stroke-linecap="round"/>
<path d="M121 8C102.795 6.57109 84.5905 5.14219 73.5701 4.22747C62.5498 3.31275 59.2654 2.95552 56.8697 2.50358C54.4739 2.05163 53.0663 1.51579 45.0218 1.23975C36.9772 0.963713 22.3384 0.963713 14.5626 1.05302C6.31754 1.32094 4.70806 1.50497 2.86114 1.59427C2.14029 1.68358 1.85877 1.86219 1 2.58747" stroke="#F2F827" stroke-width="2" stroke-linecap="round"/>
</svg>
