<svg viewBox="0 0 18 17" fill="currentColor" xmlns="http://www.w3.org/2000/svg">
<path d="M4.17004 2.375C4.15837 2.73667 4.05337 3.06333 3.85504 3.355C3.65671 3.64667 3.39421 3.85958 3.06754 3.99375C2.74087 4.12792 2.40254 4.16 2.05254 4.09C1.70254 4.02 1.40212 3.85667 1.15129 3.6C0.900456 3.34333 0.745873 3.04 0.687539 2.69C0.629206 2.34 0.670039 2.00167 0.810039 1.675C0.950039 1.34833 1.17171 1.08875 1.47504 0.89625C1.77837 0.70375 2.11087 0.613334 2.47254 0.625C2.93921 0.636666 3.33879 0.811666 3.67129 1.15C4.00379 1.48833 4.17004 1.89667 4.17004 2.375ZM4.22254 5.42H0.722539V16.375H4.22254V5.42ZM9.75254 5.42H6.27004V16.375H9.71754V10.635C9.71754 10.0167 9.85754 9.49167 10.1375 9.06C10.4059 8.66333 10.75 8.38917 11.17 8.2375C11.59 8.08583 12.01 8.07417 12.43 8.2025C12.85 8.33083 13.1884 8.5875 13.445 8.9725C13.7367 9.41583 13.8825 9.97 13.8825 10.635V16.375H17.3475V9.445C17.3475 8.41833 17.1259 7.54917 16.6825 6.8375C16.2975 6.21917 15.7609 5.7525 15.0725 5.4375C14.4425 5.16917 13.76 5.0525 13.025 5.0875C12.3134 5.1225 11.6542 5.30042 11.0475 5.62125C10.4409 5.94208 9.99754 6.365 9.71754 6.89L9.75254 5.42Z" fill="currentColor"/>
</svg>
