<svg width="20" height="17" viewBox="0 0 20 17" fill="none" xmlns="http://www.w3.org/2000/svg">
<path d="M18.75 0.625C18.995 0.625 19.2021 0.709583 19.3713 0.87875C19.5404 1.04792 19.625 1.255 19.625 1.5V15.5C19.625 15.745 19.5404 15.9521 19.3713 16.1213C19.2021 16.2904 18.995 16.375 18.75 16.375H3C2.755 16.375 2.54792 16.2904 2.37875 16.1213C2.20958 15.9521 2.125 15.745 2.125 15.5V14.625H17.875V4.3875L10.875 10.6875L2.125 2.8125V1.5C2.125 1.255 2.20958 1.04792 2.37875 0.87875C2.54792 0.709583 2.755 0.625 3 0.625H18.75ZM7.375 11.125V12.875H0.375V11.125H7.375ZM4.75 6.75V8.5H0.375V6.75H4.75ZM17.49 2.375H4.26L10.875 8.325L17.49 2.375Z" fill="white"/>
</svg>
