<svg width="14" height="12" viewBox="0 0 14 12" fill="none" xmlns="http://www.w3.org/2000/svg">
<path d="M1.335 0H13.335C13.5217 0 13.6794 0.0644445 13.8083 0.193333C13.9372 0.322222 14.0017 0.48 14.0017 0.666666V11.3333C14.0017 11.52 13.9372 11.6778 13.8083 11.8067C13.6794 11.9356 13.5217 12 13.335 12H1.335C1.14833 12 0.990557 11.9356 0.861668 11.8067C0.732779 11.6778 0.668335 11.52 0.668335 11.3333V0.666666C0.668335 0.48 0.732779 0.322222 0.861668 0.193333C0.990557 0.0644445 1.14833 0 1.335 0ZM12.6683 2.82667L7.38834 7.56L2.00167 2.81333V10.6667H12.6683V2.82667ZM2.34834 1.33333L7.375 5.77333L12.335 1.33333H2.34834Z" fill="#A8B0B7"/>
</svg>
