<svg width="69" height="68" viewBox="0 0 69 68" fill="none" xmlns="http://www.w3.org/2000/svg">
<path d="M16.4715 67.0107L37.1102 49.0796L44.4156 41.7742L38.3131 36.4393L31.3923 43.3606L13.6627 64.2025L16.4715 67.0107ZM51.2968 34.5028L68.4275 15.0542L65.6192 12.2459L46.0103 29.1946C47.6803 30.8645 50.0683 33.2581 51.2985 34.5L51.2968 34.5028Z" fill="#13191D"/>
<path d="M51.9571 67.0107L54.7654 64.2019L40.4596 47.649L35.3831 52.41L51.9571 67.0107ZM27.7008 45.4625L33.4192 39.7441L23.649 29.9745L2.80828 12.2459L1.52588e-05 15.0542L17.9312 35.6929L27.7008 45.4625Z" fill="#13191D"/>
<path d="M62.2188 55.8779L65.0271 53.0691L45.1961 30.1265L39.5712 24.5011L33.8829 30.2501L39.4772 35.8449L62.2188 55.8779ZM26.7434 22.8912L32.9021 17.9828L13.0711 1.11256L10.2628 3.92083L26.7434 22.8912Z" fill="#13191D"/>
<path d="M5.23909 54.7646L20.9292 41.1325L16.1398 35.8388L2.43026 51.9564L5.23909 54.7646ZM28.4979 34.2134L37.1626 25.5487L57.1951 2.80811L54.3868 -0.000159922L31.4442 19.8303L23.0945 28.1799L28.4973 34.2128L28.4979 34.2134Z" fill="#13191D"/>
</svg>
