<svg width="98" height="93" viewBox="0 0 98 93" fill="none" xmlns="http://www.w3.org/2000/svg">
<rect width="98" height="93" fill="#1E1E1E"/>
<rect width="1440" height="8522" transform="translate(-242 -5401)" fill="white"/>
<rect width="1440" height="8522" transform="translate(-242 -5401)" fill="#13191D"/>
<path d="M0 13C0 5.8203 5.8203 0 13 0H64C82.7777 0 98 15.2223 98 34V76C98 85.3888 90.3888 93 81 93H59C26.4152 93 0 66.5848 0 34V13Z" fill="#A8B0B7"/>
<path d="M56.6337 77.6172C56.2893 78.2955 56.0653 78.9456 55.6677 79.4657C54.9621 80.3899 53.9317 80.7489 52.8229 80.5058C52.2125 80.373 52.1145 80.5962 51.9437 81.057C51.3416 82.6963 49.5692 83.4933 47.9788 82.8687C47.752 82.7811 47.5476 82.6341 47.2732 82.4815C48.284 81.43 49.2472 80.4577 50.1796 79.4515C51.7953 77.7048 51.1092 74.9801 48.886 74.3329C48.4744 74.2142 48.0236 74.2339 47.4916 74.1802C47.6316 73.0497 47.3992 71.9898 46.5788 71.122C45.7388 70.2317 44.6888 70.0169 43.4568 70.2063C43.5548 68.94 43.3196 67.801 42.3983 66.9276C41.4659 66.0458 40.3571 65.7942 39.0831 66.1306C39.0299 65.7236 39.0019 65.3392 38.9263 64.9633C38.6603 63.6094 37.8875 62.6936 36.5659 62.3064C35.2722 61.9277 34.1438 62.2725 33.2058 63.2306C32.1838 64.2793 31.159 65.325 30.179 66.4132C29.7506 66.8881 29.4342 67.4646 29.0282 68.0497C28.0678 67.0633 27.0906 66.0401 26.0881 65.0396C25.6457 64.5958 25.1669 64.1888 24.6881 63.7846C24.0385 63.2391 23.9405 62.8802 24.3073 62.0803C25.3489 59.8191 26.4017 57.5608 27.449 55.2997C28.0062 54.0956 28.5634 52.8916 29.1234 51.6903C29.6526 50.5513 30.0082 50.4156 31.117 50.9498C32.8922 51.8062 34.7403 52.3828 36.7311 52.2132C37.5991 52.1397 38.4671 51.956 39.3071 51.7158C41.4183 51.1109 43.5296 50.5117 45.7416 50.4213C47.01 50.3676 47.934 50.6135 48.6928 51.1872C48.2588 51.696 47.8444 52.2217 47.388 52.705C45.6884 54.5026 43.776 56.0487 41.7515 57.4534C41.4295 57.6767 41.0963 57.9085 40.8387 58.1968C39.4135 59.7824 39.8867 62.1029 41.9027 63.1911C44.0392 64.3443 46.1812 64.3414 48.158 62.8321C49.5776 61.7496 50.9104 60.554 52.2797 59.4065C52.5989 59.1408 52.9097 58.8638 53.2933 58.5331C54.2481 59.6722 55.1525 60.7914 56.1017 61.8683C57.6837 63.6631 59.2601 65.4664 60.915 67.1961C62.0406 68.3719 63.337 69.3584 64.863 69.9971C65.0534 70.0763 65.241 70.3306 65.3026 70.5398C66.0026 72.9423 64.0706 75.5398 61.4694 74.8614C61.181 74.7851 61.069 74.8247 60.9906 75.1412C60.411 77.4787 58.9493 78.3012 56.6253 77.6257C56.6085 77.6144 56.5833 77.6285 56.6337 77.6172Z" fill="#13191D"/>
<path d="M25.1277 40.8508C25.1277 39.6411 25.1025 38.553 25.1389 37.4648C25.1557 36.9504 25.0241 36.7723 24.4893 36.7949C23.4281 36.8373 22.3613 36.8119 21.2973 36.8062C20.3929 36.8006 19.8581 36.3031 19.8553 35.393C19.8469 30.4185 19.8469 25.444 19.8553 20.4694C19.8581 19.5424 20.3985 19.0195 21.3421 19.0082C22.7533 18.994 24.1645 19.0025 25.5757 19.0025C31.3354 19.0025 37.0979 19.0025 42.8575 19.0025C43.0899 19.0025 43.3224 18.994 43.552 19.011C44.3584 19.0732 44.8708 19.6102 44.8708 20.4186C44.8764 25.3931 44.8764 30.3676 44.8708 35.3421C44.8708 36.3031 44.3696 36.8006 43.412 36.8006C39.5955 36.8034 35.7763 36.809 31.9598 36.7921C31.4754 36.7893 31.0778 36.9051 30.6718 37.1793C29.003 38.3127 27.3146 39.415 25.6317 40.5258C25.5085 40.6162 25.3769 40.6954 25.1277 40.8508ZM31.6294 32.4366C30.5878 32.1228 29.9382 31.5943 29.7058 30.5965C29.5854 30.0765 29.2186 29.8475 28.8014 29.9465C28.387 30.0454 28.1994 30.4015 28.2946 30.9414C28.527 32.2557 29.3306 33.146 30.5094 33.601C31.2682 33.8922 31.7974 34.155 31.6854 35.1019C31.6434 35.458 31.9654 35.6756 32.3378 35.6813C32.7354 35.6869 32.9958 35.4863 33.063 35.0821C33.091 34.9238 33.0994 34.7542 33.077 34.5931C33.0182 34.1381 33.1946 33.9402 33.6538 33.8413C34.4378 33.6717 35.1015 33.2449 35.6503 32.6457C36.8683 31.3201 36.8235 28.7763 34.7206 27.9312C34.337 27.7758 33.9394 27.6486 33.539 27.5468C33.2282 27.4677 33.0658 27.3405 33.0742 26.9815C33.0938 25.9301 33.0938 24.8815 33.0742 23.8301C33.0658 23.3807 33.2814 23.3694 33.5922 23.4965C34.2866 23.7792 34.8131 24.2116 35.0231 24.9917C35.1603 25.5061 35.5439 25.721 35.9583 25.574C36.4091 25.4157 36.5323 25.0624 36.4259 24.6186C36.3727 24.3954 36.3111 24.1636 36.2103 23.9573C35.7063 22.9313 34.8691 22.2557 33.791 22.0296C33.1386 21.8911 33.049 21.6113 33.0714 21.0545C33.0938 20.4694 32.7914 20.1387 32.3462 20.1529C31.9122 20.167 31.6126 20.461 31.649 21.0121C31.6882 21.6339 31.5398 21.9985 30.8622 21.9985C30.7502 21.9985 30.6354 22.0494 30.529 22.0918C29.227 22.6232 28.3786 23.5333 28.247 24.9889C28.1294 26.2834 28.835 27.3772 30.165 28.0301C30.5178 28.2026 30.9042 28.3071 31.243 28.4965C31.4082 28.5898 31.6042 28.8102 31.6098 28.977C31.6462 30.0991 31.6294 31.2184 31.6294 32.4366Z" fill="#13191D"/>
<path d="M72.4035 43.0753C71.1099 42.2245 69.9731 41.4755 68.8362 40.7265C68.489 40.4976 68.1054 40.3054 67.7974 40.0284C66.8342 39.1579 65.7198 39.0024 64.4654 39.025C61.1109 39.09 57.7537 39.0476 54.3965 39.0476C53.1113 39.0476 52.6464 38.5756 52.6464 37.2755C52.6464 32.5101 52.6744 27.7419 52.624 22.9765C52.6128 21.9223 53.2708 21.2185 54.3461 21.2242C61.5673 21.2666 68.7886 21.2468 76.0127 21.2468C77.2335 21.2468 77.6788 21.6877 77.6816 22.9313C77.6872 27.7447 77.6872 32.5581 77.6816 37.3716C77.6816 38.5841 77.2027 39.0448 75.9875 39.0476C75.2455 39.0505 74.5063 39.0476 73.7643 39.0476C72.4091 39.0476 72.4063 39.0476 72.4007 40.3845C72.4007 41.224 72.4035 42.0634 72.4035 43.0753ZM66.6774 33.488C66.6578 33.4909 66.6382 33.4937 66.6186 33.4965C66.6858 33.9798 66.7138 34.4716 66.8314 34.9408C67.1254 36.1166 68.0242 36.8034 69.2562 36.8571C70.5863 36.9137 71.5299 36.354 71.9415 35.2065C72.3503 34.0703 72.3251 32.9143 71.9359 31.778C71.6503 30.9443 71.0399 30.427 70.1943 30.232C68.2986 29.7911 66.8314 30.8962 66.683 32.8577C66.6634 33.0669 66.6774 33.2789 66.6774 33.488ZM63.6982 26.7753C63.673 26.4841 63.6646 26.0376 63.5862 25.6051C63.3706 24.4322 62.6202 23.6634 61.5702 23.4881C60.2317 23.262 59.1033 23.6521 58.6217 24.6413C57.9441 26.0319 57.9273 27.4847 58.6049 28.881C59.1061 29.9098 60.2905 30.3281 61.6066 30.0681C62.679 29.8561 63.435 28.994 63.617 27.7673C63.6534 27.4875 63.6618 27.2049 63.6982 26.7753ZM60.9625 36.8317C61.3573 36.8317 61.615 36.7978 61.8614 36.8374C62.539 36.9504 62.8694 36.6452 63.1662 36.0347C65.101 32.0663 67.0778 28.1206 69.0406 24.1636C69.147 23.9488 69.2366 23.7255 69.3766 23.4175C69.0238 23.4175 68.7914 23.4486 68.573 23.4118C67.8646 23.2874 67.523 23.6153 67.2178 24.2513C65.885 27.0127 64.4906 29.7458 63.1214 32.4903C62.4186 33.9007 61.7186 35.3111 60.9625 36.8317Z" fill="#13191D"/>
<path d="M66.3274 69.4376C65.5574 69.1126 64.7762 68.878 64.0958 68.4738C62.2842 67.3913 60.8394 65.8622 59.4589 64.2878C57.8489 62.4535 56.3089 60.5541 54.7213 58.7C53.4865 57.2585 53.2513 57.2698 51.8176 58.5134C50.4512 59.7005 49.082 60.8905 47.6624 62.0126C46.0356 63.3014 44.2492 63.3184 42.4515 62.3998C41.2223 61.7723 40.6735 60.5541 41.1551 59.5225C41.3511 59.1013 41.7011 58.6943 42.0819 58.4315C44.8848 56.4982 47.4748 54.3388 49.5972 51.6367C49.936 51.2043 50.3924 50.8538 50.8348 50.5203C51.532 49.9946 52.2881 49.8335 53.1813 50.0568C56.8997 50.9753 60.6854 51.4021 64.5102 51.4502C65.3614 51.4615 66.2182 51.3682 67.061 51.241C67.9458 51.1082 67.9878 51.0827 68.3798 51.925C69.4327 54.1805 70.4771 56.4417 71.5243 58.7C72.0927 59.9238 72.6611 61.1505 73.2239 62.3743C73.5347 63.0527 73.4591 63.1827 72.9243 63.6886C71.5103 65.0312 70.1271 66.4077 68.7326 67.7728C68.3994 68.0979 68.111 68.4823 67.7358 68.7423C67.3326 69.0193 66.851 69.186 66.3274 69.4376Z" fill="#13191D"/>
<path d="M15.07 41.1504C16.8928 42.0944 18.6568 43.0045 20.4209 43.9175C23.1117 45.3081 25.8053 46.7015 28.4962 48.0921C29.4006 48.5613 29.479 48.7535 29.045 49.6777C26.9729 54.1011 24.8953 58.5216 22.8149 62.9394C22.4593 63.6968 22.1877 63.7958 21.4541 63.4255C19.4269 62.408 17.408 61.3792 15.3808 60.3616C15.1316 60.2373 15 60.1073 15 59.7907C15.0168 53.6291 15.0168 47.4675 15.0224 41.3058C15.0252 41.2889 15.0364 41.2663 15.07 41.1504ZM20.1941 60.6782C20.8269 60.6726 21.3673 60.1129 21.3673 59.4572C21.3673 58.8071 20.8213 58.2475 20.1801 58.2446C19.4941 58.239 18.976 58.7902 18.9956 59.5052C19.0152 60.1921 19.5165 60.6839 20.1941 60.6782Z" fill="#13191D"/>
<path d="M82.5088 41.4272C82.5088 41.7071 82.5088 41.9077 82.5088 42.1112C82.5088 47.9959 82.5004 53.8805 82.52 59.768C82.5228 60.2937 82.3548 60.5396 81.8984 60.7629C79.9664 61.7097 78.0539 62.7018 76.1331 63.6713C75.3603 64.0613 75.0887 63.9709 74.7163 63.1823C72.6499 58.807 70.5835 54.4317 68.5254 50.0507C68.0298 48.9964 68.0858 48.8551 69.1162 48.3209C73.3919 46.1078 77.6675 43.8947 81.9432 41.6816C82.1028 41.6025 82.268 41.5375 82.5088 41.4272ZM78.5439 59.7623C78.5607 59.0868 78.0651 58.5385 77.4127 58.513C76.7575 58.4876 76.1975 58.9963 76.1611 59.6493C76.1219 60.3304 76.6707 60.9268 77.3427 60.9381C77.9979 60.9494 78.5271 60.4322 78.5439 59.7623Z" fill="#13191D"/>
<path d="M40.3571 66.9527C41.0515 66.9895 41.7739 67.4247 42.2135 68.2811C42.6951 69.2167 42.6363 70.1664 41.9671 70.9634C41.1047 71.9922 40.1527 72.9476 39.2315 73.9283C38.8199 74.3693 38.4111 74.813 37.9743 75.2285C37.0195 76.1358 35.7202 76.181 34.7794 75.3613C33.7966 74.5078 33.595 73.0832 34.337 72.0233C34.6002 71.6474 34.939 71.3196 35.2554 70.9832C36.2382 69.9346 37.2295 68.8916 38.2151 67.8459C38.7303 67.3032 39.3239 66.9358 40.3571 66.9527Z" fill="#13191D"/>
<path d="M30.011 69.0391C30.0026 68.3522 30.249 67.7587 30.711 67.2669C31.7918 66.1165 32.8726 64.9633 33.9842 63.8441C34.9082 62.917 36.2551 62.8746 37.1847 63.6886C38.1507 64.5337 38.4195 66.077 37.5991 67.0323C36.3895 68.437 35.0958 69.7796 33.749 71.0543C33.0798 71.6874 32.1726 71.662 31.3354 71.2606C30.543 70.8819 30.0166 69.9746 30.011 69.0391Z" fill="#13191D"/>
<path d="M46.5536 73.6118C46.5704 74.1969 46.31 74.7537 45.8592 75.2229C44.7336 76.3959 43.6164 77.5745 42.4627 78.7192C41.5219 79.6519 40.2563 79.6887 39.3491 78.8746C38.4251 78.0437 38.1871 76.6022 38.9991 75.6638C40.2283 74.2421 41.5471 72.8967 42.8996 71.5938C43.5716 70.9465 44.4676 70.9267 45.2964 71.3592C46.1448 71.8029 46.5648 72.5491 46.5536 73.6118Z" fill="#13191D"/>
<path d="M47.934 75.1892C48.9644 75.2287 49.53 75.6188 49.8744 76.3197C50.258 77.1027 50.2104 77.9167 49.6504 78.5554C48.6088 79.7397 47.5084 80.8788 46.3716 81.9754C45.6772 82.6453 44.6832 82.6255 43.9496 82.0687C43.1599 81.4667 42.8855 80.4124 43.3111 79.5051C43.4372 79.2366 43.6219 78.9851 43.8236 78.7674C44.7112 77.8177 45.6128 76.8794 46.52 75.9438C46.968 75.4775 47.486 75.1439 47.934 75.1892Z" fill="#13191D"/>
<path d="M31.5706 26.9673C30.2742 26.5885 29.7002 26.0063 29.7338 25.1414C29.7674 24.268 30.4506 23.6066 31.5706 23.4116C31.5706 24.5846 31.5706 25.7491 31.5706 26.9673Z" fill="#13191D"/>
<path d="M33.0966 32.3743C33.0966 31.2579 33.0966 30.1443 33.0966 29.0278C34.3678 29.2002 34.9642 29.6751 34.9922 30.5032C35.0258 31.4388 34.085 32.3348 33.0966 32.3743Z" fill="#13191D"/>
<path d="M70.3399 33.4907C70.2699 33.9429 70.2615 34.446 70.0935 34.8898C70.0011 35.13 69.6371 35.4099 69.3991 35.407C69.1667 35.4042 68.8167 35.1046 68.7355 34.8615C68.4331 33.9627 68.4611 33.0328 68.7019 32.1142C68.8027 31.7298 69.0967 31.467 69.4579 31.5574C69.7183 31.6224 70.0207 31.8966 70.1187 32.151C70.2727 32.5495 70.2699 33.0102 70.3399 33.4907Z" fill="#13191D"/>
<path d="M59.9685 26.7329C60.0273 26.292 60.0133 25.8482 60.1645 25.4723C60.2765 25.1953 60.5705 24.8957 60.8449 24.8109C61.2202 24.695 61.4918 25.0116 61.5926 25.3762C61.8418 26.292 61.8502 27.2247 61.5758 28.1263C61.503 28.3666 61.1558 28.6266 60.8953 28.6831C60.5229 28.7623 60.2429 28.4796 60.1673 28.0896C60.0805 27.6374 60.0301 27.1767 59.9685 26.7329Z" fill="#13191D"/>
</svg>
