<svg width="92" height="54" viewBox="0 0 92 54" fill="none" xmlns="http://www.w3.org/2000/svg">
<g clip-path="url(#clip0_1_313)">
<path d="M19.8822 16.8126C20.4132 16.385 20.9605 15.9761 21.4619 15.5158C21.5864 15.4021 21.5995 15.1255 21.5973 14.9243C21.5919 14.1765 21.9862 13.7227 22.6013 13.3641C22.9585 13.1564 23.4425 12.8961 23.5364 12.5648C23.7188 11.9198 23.7156 11.2058 23.6839 10.5246C23.6751 10.3202 23.3409 10.1037 23.1202 9.94078C22.8001 9.70461 22.4232 9.5417 22.1173 9.28913C21.9021 9.11092 21.6924 8.85944 21.6137 8.60141C21.5405 8.3565 21.5733 8.01974 21.6989 7.80216C21.7579 7.70048 22.1468 7.75843 22.3762 7.80107C22.4942 7.82294 22.5904 7.96726 22.6963 8.05692C22.4189 8.05692 22.1403 8.05692 21.8464 8.05692C22.0245 8.88896 22.2987 9.22135 23.094 9.5756C24.1547 10.0479 25.2635 10.0282 26.392 9.91563C27.6811 9.78771 28.9811 9.59418 30.2406 10.1288C30.339 10.1266 30.4318 10.1299 30.5247 10.1332C30.5105 10.1059 30.4886 10.0534 30.4843 10.0545C30.3958 10.0862 30.3095 10.1234 30.2221 10.1594C30.3859 9.81067 30.1161 9.67618 29.8889 9.61168C29.2312 9.42581 28.5681 9.21807 27.8941 9.14481C26.8508 9.0311 25.7934 9.04969 24.7479 8.95675C23.957 8.88678 23.1934 8.6856 22.6548 8.01865C22.8154 7.88745 22.9771 7.75624 23.1344 7.62723C23.2098 7.64363 23.319 7.63597 23.342 7.67643C23.8325 8.55221 24.6365 8.72496 25.5552 8.74792C26.5351 8.77198 27.515 8.85835 28.4895 8.96441C30.0178 9.1295 31.25 9.75272 31.9973 11.2014C32.3949 11.9722 32.9116 12.6873 33.4207 13.3947C35.2418 15.9269 38.6676 15.0665 39.7339 12.8437C40.1741 11.9263 40.6001 11.0013 41.0677 10.0982C41.5877 9.09342 42.2049 8.15532 43.281 7.58021C42.9969 7.95086 42.6943 8.31058 42.4311 8.69544C41.922 9.43783 41.3102 10.1354 41.2633 11.1041L41.284 11.0877C41.0666 11.4157 40.8241 11.7295 40.6384 12.075C40.4494 12.4249 40.3205 12.8087 40.1555 13.1728C39.5765 14.452 38.7911 15.5071 37.2398 15.7236C37.5435 16.2779 37.9182 16.0636 38.282 15.9718C39.7601 15.5956 41.2217 15.0839 42.7238 14.8915C44.7208 14.6357 46.6304 14.0955 48.5432 13.5357C49.0555 13.386 49.5395 13.141 50.0365 12.9388L50.0355 12.9366C49.9623 13.9326 49.463 14.6499 48.6819 15.2622C47.3328 16.3184 47.3284 16.6267 48.494 17.8305C48.9092 18.2591 49.2445 18.6603 49.1823 19.3371C49.1375 19.8291 49.3024 20.3397 49.3855 20.9214C53.2614 20.9214 57.1559 20.9214 61.1105 20.9214C61.0941 20.6557 61.1116 20.4447 61.0635 20.249C60.9718 19.8718 60.8407 19.5033 60.7292 19.1305C60.6571 18.8888 60.6134 18.6363 60.5162 18.4056C60.1535 17.5418 59.71 16.7065 59.4227 15.8198C59.1933 15.1113 58.8393 14.6215 58.1227 14.4093C58.6351 14.4082 59.1485 14.4083 59.6882 14.4083C59.6368 13.7905 59.3244 13.8725 58.9945 13.8517C58.4472 13.8167 57.9053 13.6866 57.3613 13.5959C57.299 13.6068 57.2346 13.6112 57.1745 13.6298C57.1417 13.6396 57.1166 13.6724 57.0882 13.6943C57.181 13.6626 57.2739 13.632 57.3667 13.6003C57.4367 13.7555 57.4705 13.9479 57.5841 14.0584C57.7469 14.2169 57.9665 14.3164 58.162 14.4411C56.3704 14.1327 55.3763 13.0328 54.9885 11.1763C55.36 10.9838 55.7423 10.8013 56.1105 10.5935C57.0259 10.0764 57.9512 9.57341 58.8361 9.00814C59.1671 8.79603 59.4293 8.70856 59.8291 8.78837C60.8134 8.98409 61.1695 8.68997 61.1881 7.67096C61.2088 6.5448 61.1629 5.41754 61.1465 4.29138L61.1236 4.31544C61.1935 5.24807 61.4251 6.20367 61.2962 7.10788C61.0996 8.4877 61.7277 9.30554 62.7426 10.0086C63.0354 10.2108 63.2997 10.4547 63.5761 10.6799C62.9207 10.3475 62.2652 10.0162 61.4797 9.61824C61.6469 10.2382 61.7922 10.7739 61.9528 11.3676C62.4749 11.2681 62.9392 11.2014 63.3871 11.0757C63.4723 11.0516 63.492 10.7936 63.5412 10.6427C64.095 10.7488 64.6478 10.8559 65.3164 10.9849C64.1059 11.2452 62.9556 11.4934 61.8697 11.7273C61.6873 12.2598 61.5267 12.6971 61.3869 13.1421C61.0013 14.359 61.3618 15.5104 61.6971 16.6671C61.837 17.1482 61.9724 17.6413 62.0161 18.1377C62.1046 19.1447 62.2444 20.0904 63.2407 20.6612C63.4144 20.7607 63.4778 21.0537 63.6591 21.3773C63.2069 21.4112 62.8966 21.4561 62.5853 21.455C57.027 21.4331 51.4676 21.4058 45.9094 21.3719C45.8733 21.3719 45.8383 21.2647 45.7073 21.0537C46.7167 21.0165 47.6474 20.9826 48.6044 20.9476C48.2439 20.1615 48.2439 20.1615 48.6481 19.617C48.5487 18.0874 47.2596 17.5014 46.1595 16.5906C46.4796 16.2178 46.7429 15.9062 47.0127 15.5989C47.2902 15.2818 47.5731 14.9702 47.8528 14.6564C48.234 14.464 48.6087 14.2639 48.8152 13.8955C48.754 13.831 48.6929 13.7675 48.6317 13.703C48.3455 13.9917 48.0592 14.2814 47.7719 14.5701C47.1241 15.1331 46.3933 15.6252 45.846 16.2724C44.5842 17.7638 44.1178 19.4301 45.172 21.2636C44.3548 21.4976 39.8191 21.5468 38.5759 21.3467C38.672 20.8733 39.0576 21.0034 39.3428 21.0001C40.6078 20.9848 41.8728 20.9936 43.1641 20.9936C43.2537 20.5103 43.3312 20.0948 43.4077 19.6804L43.482 19.6105C43.5257 19.8805 43.5858 20.1495 43.6109 20.4206C43.6491 20.8361 43.8567 20.9848 44.2838 20.9083C44.3013 20.788 44.3647 20.6437 44.3221 20.5978C43.6731 19.8915 43.9845 19.101 44.1167 18.3334C44.2521 17.5462 44.3789 16.7546 44.581 15.9838C44.676 15.6219 44.9382 15.3048 45.1632 14.8981C44.2281 14.9254 43.3367 15.1058 42.6069 15.6973C42.3338 15.9182 42.1787 16.3468 42.0804 16.7098C41.8641 17.5134 41.2731 17.8622 40.6755 17.3428C40.0233 16.7743 39.5186 16.9427 38.9386 17.3046C39.003 17.8425 39.1166 18.3389 39.1134 18.8342C39.1013 20.3321 37.9477 21.5392 36.4675 21.6561C34.9119 21.7797 33.5933 20.764 33.3158 19.2529C33.2481 18.8812 33.1083 18.5215 32.999 18.1552C33.117 18.0218 33.2372 17.8895 33.4273 17.6807C32.7663 17.6195 32.8319 17.8655 33.0263 18.1803C32.7532 18.1246 32.4812 18.0688 32.1043 17.9923C32.5271 17.3538 33.2634 17.4576 33.7047 17.0761C34.1625 16.6792 34.5983 16.256 35.1664 15.7312C34.4607 15.7837 33.8752 15.8274 33.3126 15.8701C33.2361 15.8067 33.164 15.7717 33.1301 15.7148C32.2999 14.3525 32.7347 14.5285 31.1342 14.628C29.2247 14.7472 27.3905 14.4148 25.5716 13.8397C24.8342 13.6068 24.0051 13.5204 23.2327 13.5773C22.3194 13.6451 22.0179 14.1448 22.1075 15.0052C23.7986 14.8073 25.2253 15.3267 26.3778 16.5862L26.415 16.5567C26.416 16.6464 26.416 16.7371 26.4171 16.8268L26.38 16.7852C26.5395 16.8661 26.6979 16.9481 26.8574 17.029L26.8301 16.9984C26.4423 17.228 26.5297 17.5593 26.5668 17.9332C26.7656 19.9199 25.2242 21.6113 23.2677 21.5938C21.4597 21.5774 20.0057 20.1375 20.0046 18.3236C20.0046 17.8731 20.1324 17.4248 20.1663 16.9722C20.1706 16.9153 19.9609 16.8432 19.8506 16.7787C19.8495 16.7798 19.8822 16.8126 19.8822 16.8126ZM24.8703 17.0039C25.0833 17.0793 25.2963 17.1559 25.5093 17.2313C24.9992 17.3516 24.489 17.4718 23.9843 17.5976C23.9799 17.6195 23.9756 17.6413 23.9712 17.6632C23.9625 17.6446 23.9526 17.626 23.9439 17.6074C23.9635 17.6129 23.9832 17.6184 24.0029 17.6227C24.1689 17.8097 24.3339 17.9956 24.4999 18.1825C24.1252 18.3553 24.3186 18.5761 24.4475 18.7915C24.1088 18.7401 24.0335 18.9599 24.0007 19.2245C23.2786 19.0856 23.6446 19.629 23.579 19.8991C23.4632 19.699 23.3485 19.4989 23.2229 19.2825C23.1027 19.3513 22.9804 19.4202 22.8591 19.4902C22.7258 19.3284 22.5925 19.1655 22.4582 19.0036C22.4647 18.7063 22.3358 18.5422 22.0212 18.5663C22.1479 18.4537 22.2736 18.3422 22.4036 18.2263C22.2648 18.1049 22.1381 17.9945 22.0125 17.883C22.1763 17.8709 22.3402 17.8589 22.5041 17.8469C22.5161 17.7933 22.527 17.7408 22.539 17.6872C22.3336 17.6107 22.1272 17.5342 21.8213 17.4216C21.9371 17.6774 21.9906 17.7966 22.0452 17.9158C21.6115 17.8141 21.1768 17.7124 20.7223 17.6063C20.4361 18.1115 20.3804 18.4963 20.9594 18.7456C20.5584 19.4574 20.6415 19.6673 21.392 19.8466C21.2521 20.4578 21.6334 20.6535 22.1829 20.8022C22.4221 20.3485 22.6592 19.898 22.8973 19.4454C22.7761 19.9254 22.6548 20.4053 22.5052 20.999C22.8733 21.057 23.165 21.1018 23.5506 21.1619C23.5506 20.6513 23.5506 20.2577 23.5506 19.8641C23.6773 20.2227 23.8051 20.5814 23.9439 20.9739C24.5524 20.9072 24.9773 20.7552 24.8593 20.0544C25.4492 20.3321 25.6087 19.9527 25.7486 19.4661C25.5213 19.2945 25.3029 19.1305 25.0844 18.9654C25.3575 18.9654 25.6317 18.9654 25.9354 18.9654C25.9354 18.6636 25.9354 18.4045 25.9354 18.0688C25.3935 18.1126 24.9336 18.1497 24.4835 18.1836C24.9664 18.024 25.4482 17.8655 26.1014 17.6501C25.7934 17.4522 25.6382 17.3516 25.4842 17.2521C25.8371 16.6464 25.3848 16.7972 25.0745 16.8158C24.9413 16.4266 24.6081 16.2987 24.3011 16.4506C24.0837 16.5589 23.9788 16.8935 23.8226 17.1263C23.8762 17.1755 23.9308 17.2258 23.9843 17.275C24.2793 17.1865 24.5742 17.0957 24.8703 17.0039ZM37.1 17.2247C37.4168 17.5495 37.7063 17.5287 37.9707 17.1668C37.8221 16.7032 37.5654 16.8956 37.3163 17.04C37.0268 16.2899 36.6226 16.8727 36.2075 16.8596C36.2348 17.1854 36.2545 17.4183 36.2927 17.8786C36.6532 17.5867 36.8761 17.4052 37.1 17.2247ZM35.3849 17.6872C34.523 16.97 34.2597 17.0203 34.0849 17.9956C34.5448 17.9748 35.0615 18.3192 35.3521 17.6533C35.5422 17.7255 35.7323 17.7977 35.9999 17.8994C35.9999 17.5418 35.9999 17.2696 35.9999 16.9153C35.6864 16.9864 35.4362 17.0433 35.1664 17.1056C35.2582 17.3516 35.3215 17.5189 35.3849 17.6872ZM34.559 19.3819C34.4061 19.523 34.2542 19.664 34.1067 19.7985C34.5634 20.5814 34.5634 20.5814 35.1446 20.2741C35.1293 20.4534 35.1129 20.6338 35.0899 20.9061C35.422 20.999 35.7498 21.0898 36.1944 21.2133C36.2217 20.6929 36.285 20.2971 36.2534 19.91C36.2119 19.406 35.8852 19.4858 35.5575 19.6509C35.6209 19.3852 35.6766 19.1174 35.244 19.2147C35.0025 19.2682 34.7666 19.3437 34.5273 19.4093C34.8223 19.2005 35.1172 18.9905 35.6394 18.6199C34.8758 18.4799 34.3908 18.3903 33.791 18.2809C33.8249 18.7664 33.8457 19.0692 33.8708 19.4344C34.1548 19.4126 34.358 19.3962 34.559 19.3819ZM37.525 20.2873C37.7139 20.2774 37.9576 20.3408 38.0821 20.2457C38.5333 19.9002 38.3836 19.4771 38.1444 19.0682L38.1302 19.0802C38.282 19.0714 38.5628 19.0747 38.5649 19.0507C38.5955 18.7511 38.5846 18.446 38.5846 18.0623C38.199 18.1016 37.9248 18.1301 37.6561 18.1563C37.8713 18.0054 38.0854 17.8545 38.4382 17.6074C37.265 17.7266 37.265 17.7266 36.8182 18.2908C37.1524 18.2306 37.4201 18.1836 37.6877 18.1355C37.2606 18.364 36.852 18.6592 36.9001 19.1841C36.9296 19.5022 37.1798 19.8007 37.3305 20.1079C37.0792 19.8816 36.828 19.6553 36.4719 19.3338C36.4719 20.0281 36.4719 20.5551 36.4719 21.2024C36.9919 20.9334 37.6703 21.1018 37.525 20.2873ZM59.8968 14.6444C59.7898 14.6728 59.6827 14.7013 59.5756 14.7286C59.7198 15.1988 59.8477 15.6744 60.0115 16.1379C60.5315 17.6031 61.0712 19.0616 61.5901 20.5278C61.7234 20.905 61.9222 21.0767 62.2488 20.9345C61.4623 18.8331 60.6801 16.7393 59.8968 14.6444ZM39.724 16.1303C40.2691 16.8782 40.8656 16.829 41.4741 16.6015C41.9537 16.4222 41.9591 16.0002 42.005 15.4918C41.201 15.7159 40.5106 15.9094 39.724 16.1303ZM23.7341 13.0656C24.4224 13.1979 25.033 13.316 25.7945 13.4625C25.2002 12.8972 24.7272 12.4468 24.1951 11.9416C24.0247 12.356 23.8947 12.6731 23.7341 13.0656ZM22.8984 15.8646C23.3015 16.2528 23.638 16.2538 24.0662 15.9062C23.6555 15.4174 23.319 15.3813 22.8984 15.8646ZM21.96 17.2269C21.9884 17.1723 22.0168 17.1176 22.0452 17.0629C21.8082 16.9066 21.5853 16.6693 21.3297 16.6245C21.1931 16.6004 20.9987 16.9088 20.66 17.2269C21.2838 17.2269 21.6214 17.2269 21.96 17.2269ZM22.8536 17.4358C22.8198 16.3522 22.7979 16.3391 21.972 16.7655C22.2375 16.9667 22.4724 17.1449 22.8536 17.4358ZM23.8707 16.478C23.0448 16.4955 23.0448 16.4955 23.3813 17.31C23.5441 17.0345 23.6686 16.8213 23.8707 16.478ZM39.2707 16.7962C39.2707 16.7371 39.2761 16.6332 39.2696 16.6321C39.0074 16.6037 38.743 16.584 38.3978 16.5578C38.6611 17.1591 38.9615 17.0083 39.2707 16.7962ZM35.8186 16.5195C35.8066 16.4572 35.7946 16.3949 35.7814 16.3326C35.5772 16.4058 35.3729 16.4791 35.1686 16.5523C35.1839 16.5972 35.2003 16.642 35.2156 16.6868C35.4177 16.6311 35.6176 16.5753 35.8186 16.5195ZM22.1851 16.1565C22.1785 16.1008 22.172 16.045 22.1654 15.9882C22.031 16.0013 21.8956 16.0133 21.7623 16.0352C21.7579 16.0363 21.7721 16.15 21.7776 16.2112C21.9131 16.1937 22.0485 16.1751 22.1851 16.1565ZM24.9107 16.1543C24.713 16.0035 24.6496 15.9182 24.6048 15.928C24.5043 15.9499 24.4125 16.0166 24.3175 16.0658C24.4639 16.0866 24.6092 16.1084 24.9107 16.1543Z" fill="#A8B0B7"/>
<path d="M48.3902 28.9643C47.7829 28.9249 47.2803 28.891 46.6861 28.8527C46.6861 28.2372 46.6861 27.6479 46.6861 26.9776C48.3214 26.9776 49.9404 26.9776 51.673 26.9776C52.7676 29.6356 53.8841 32.3449 55.0792 35.2467C56.2776 32.334 57.3897 29.6279 58.4941 26.9448C60.1907 26.9448 61.7834 26.9448 63.4592 26.9448C63.4592 27.5801 63.4592 28.1716 63.4592 28.8298C62.913 28.879 62.3843 28.9271 61.7834 28.9818C61.7834 32.2815 61.7834 35.5408 61.7834 38.8876C62.322 38.9313 62.8496 38.974 63.4581 39.0232C63.4581 39.6464 63.4581 40.2412 63.4581 40.9016C61.6392 40.9016 59.8345 40.9016 57.9545 40.9016C57.9545 40.298 57.9545 39.7339 57.9545 39.0461C58.4526 38.998 58.977 38.9477 59.5669 38.8909C59.5669 35.8688 59.5669 32.8566 59.5669 29.8455C59.521 29.8236 59.474 29.8029 59.4282 29.781C58.1675 32.8052 56.9068 35.8295 55.6374 38.8745C55.2452 38.8745 54.8957 38.8745 54.5057 38.8745C53.2308 35.8 51.9701 32.7571 50.7095 29.7154C50.6538 29.7285 50.598 29.7416 50.5434 29.7559C50.5434 32.779 50.5434 35.801 50.5434 38.8953C51.0754 38.9346 51.5714 38.9718 52.1591 39.0155C52.1591 39.6355 52.1591 40.2259 52.1591 40.8939C50.3468 40.8939 48.5476 40.8939 46.6686 40.8939C46.6686 40.2948 46.6686 39.7306 46.6686 39.0647C46.9231 39.0319 47.1962 38.9882 47.4704 38.962C47.7555 38.9346 48.0429 38.9226 48.3902 38.9007C48.3902 35.5944 48.3902 32.3307 48.3902 28.9643Z" fill="#A8B0B7"/>
<path d="M8.31447 40.8873C8.31447 40.2663 8.31447 39.6934 8.31447 39.0505C8.86069 38.9936 9.38614 38.9401 9.96185 38.8799C9.96185 37.3875 9.96185 35.941 9.96185 34.4934C9.21026 34.2474 4.98038 34.2058 3.73282 34.4584C3.73282 35.6611 3.72845 36.8911 3.7361 38.1201C3.73719 38.3661 3.78635 38.6121 3.81694 38.8974C4.35879 38.9412 4.85584 38.9827 5.42937 39.0286C5.42937 39.6661 5.42937 40.2587 5.42937 40.9114C3.60501 40.9114 1.83637 40.9114 0.00436351 40.9114C0.00436351 40.2926 0.00436351 39.7251 0.00436351 39.0494C0.518898 38.9991 1.04217 38.9477 1.6299 38.8898C1.6299 35.6031 1.6299 32.3405 1.6299 28.9828C1.10116 28.9369 0.575704 28.8921 -0.00109863 28.8429C-0.00109863 28.224 -0.00109863 27.6533 -0.00109863 27.0848C0.779988 26.853 4.29433 26.8191 5.44247 27.0432C5.44247 27.5954 5.44247 28.1628 5.44247 28.8287C4.91811 28.879 4.39374 28.9293 3.80492 28.9861C3.80492 30.0674 3.80492 31.104 3.80492 32.1416C4.55542 32.369 8.12985 32.4357 9.95748 32.2411C10.07 31.1925 10.0121 30.1243 9.99244 28.9828C9.42438 28.9369 8.92732 28.8965 8.34834 28.8494C8.34834 28.2404 8.34834 27.6467 8.34834 26.9765C10.1279 26.9765 11.8955 26.9765 13.7602 26.9765C13.7602 27.556 13.7602 28.1497 13.7602 28.8243C13.2424 28.8768 12.7191 28.9304 12.1303 28.9905C12.1303 32.2979 12.1303 35.5561 12.1303 38.8985C12.6514 38.9368 13.1485 38.9729 13.7417 39.0155C13.7417 39.619 13.7417 40.2117 13.7417 40.8884C11.9555 40.8873 10.1607 40.8873 8.31447 40.8873Z" fill="#A8B0B7"/>
<path d="M32.6778 38.8996C32.6778 35.5955 32.6778 32.3285 32.6778 28.9708C32.1381 28.9227 31.6127 28.8768 31.0337 28.8254C31.0337 28.2055 31.0337 27.6358 31.0337 26.9809C31.3134 26.9514 31.5897 26.8967 31.8672 26.8956C34.1242 26.8891 36.3811 26.8858 38.6381 26.8989C39.0729 26.9011 39.511 26.947 39.9392 27.0192C41.5374 27.2892 42.561 28.2831 42.9117 29.8193C43.175 30.9771 42.714 32.8227 41.3725 33.4984C41.2807 33.5444 41.2108 33.6351 41.095 33.7368C42.2125 34.489 42.5982 35.5594 42.5479 36.8408C42.5206 37.5231 42.5435 38.2064 42.5435 38.9237C43.1837 38.9696 43.6851 39.0046 44.2576 39.0462C44.2576 39.6781 44.2576 40.2718 44.2576 40.9267C43.0362 40.9267 41.852 40.9267 40.5662 40.9267C40.5236 39.6038 40.4144 38.3344 40.4559 37.0704C40.5302 34.8181 39.4651 34.4376 37.8439 34.5185C36.8695 34.5677 35.8895 34.5273 34.8343 34.5273C34.8343 36.0143 34.8343 37.4138 34.8343 38.904C35.3411 38.9488 35.8327 38.9915 36.3986 39.0418C36.3986 39.6694 36.3986 40.2652 36.3986 40.9278C34.6092 40.9278 32.8439 40.9278 31.025 40.9278C31.025 40.2915 31.025 39.7208 31.025 39.0833C31.5734 39.0221 32.0999 38.9631 32.6778 38.8996ZM34.8048 32.5713C36.3276 32.5713 37.7401 32.603 39.1515 32.5614C40.2757 32.5275 41.0535 31.7294 41.048 30.7279C41.0414 29.6564 40.3696 28.973 39.1559 28.9194C37.9597 28.867 36.7602 28.8943 35.5629 28.9019C35.3226 28.903 35.0822 28.973 34.8048 29.0157C34.8048 30.1877 34.8048 31.3008 34.8048 32.5713Z" fill="#A8B0B7"/>
<path d="M70.1558 38.9105C71.9496 38.9105 73.6821 38.9105 75.5415 38.9105C75.5415 38.0522 75.5415 37.2333 75.5415 36.3433C76.2308 36.3433 76.7978 36.3433 77.3778 36.3433C77.6149 37.0267 77.675 39.3905 77.4707 40.8928C73.7521 40.8928 70.0214 40.8928 66.2252 40.8928C66.2252 40.2936 66.2252 39.7273 66.2252 39.033C66.766 38.9903 67.322 38.9455 67.936 38.8963C67.936 35.5758 67.936 32.3154 67.936 28.9784C67.3646 28.9325 66.8326 28.8899 66.2307 28.8418C66.2307 28.2196 66.2307 27.6238 66.2307 26.9623C69.9723 26.9623 73.669 26.9623 77.4838 26.9623C77.5996 28.2164 77.5482 29.4617 77.5133 30.7628C76.8633 30.7628 76.2996 30.7628 75.6693 30.7628C75.6223 30.156 75.5786 29.5907 75.5305 28.9719C73.7204 28.9719 71.955 28.9719 70.1317 28.9719C70.1317 30.0773 70.1317 31.1171 70.1317 32.2684C71.6382 32.2684 73.113 32.2684 74.6828 32.2684C74.6828 32.9648 74.6828 33.5531 74.6828 34.2528C73.1916 34.2528 71.7136 34.2528 70.1569 34.2528C70.1558 35.8316 70.1558 37.3033 70.1558 38.9105Z" fill="#A8B0B7"/>
<path d="M16.5394 40.8239C16.5394 40.2695 16.5394 39.701 16.5394 39.0362C17.0976 38.9925 17.6274 38.952 18.3135 38.8984C18.3299 35.6271 18.3178 32.3689 18.3211 28.986C17.7137 28.9368 17.1588 28.8931 16.5426 28.8439C16.5426 28.2196 16.5426 27.6532 16.5426 27.0934C17.3063 26.8594 26.2183 26.7873 27.8111 27.006C27.8111 28.2087 27.8111 29.4267 27.8111 30.7321C27.255 30.7321 26.6935 30.7321 25.9998 30.7321C25.9692 30.2183 25.9354 29.6552 25.8927 28.9489C24.0859 28.8701 22.2954 28.9073 20.4328 28.927C20.4328 30.0783 20.4328 31.1137 20.4328 32.2902C21.9731 32.2902 23.4774 32.2902 25.0363 32.2902C25.0363 32.9943 25.0363 33.5596 25.0363 34.2604C23.5112 34.2604 22.0048 34.2604 20.4306 34.2604C20.4306 35.8676 20.4306 37.3426 20.4306 38.8897C22.2418 38.8897 24.0028 38.8897 25.896 38.8897C25.896 38.0205 25.896 37.2015 25.896 36.328C26.5952 36.328 27.1643 36.328 27.8777 36.328C27.9476 37.804 27.9028 39.28 27.9028 40.7386C27.1141 41.0152 17.835 41.0819 16.5394 40.8239Z" fill="#A8B0B7"/>
<path d="M83.0279 40.1384C82.9318 40.4281 82.8651 40.6282 82.7756 40.9004C82.2304 40.9004 81.67 40.9004 81.0452 40.9004C81.0452 39.3008 81.0452 37.7483 81.0452 36.106C81.599 36.106 82.1573 36.106 82.7854 36.106C82.8553 36.3488 82.9263 36.6254 83.0137 36.8976C83.4682 38.3124 84.3989 39.1653 85.8977 39.3741C86.8176 39.502 87.7144 39.4714 88.5786 39.1084C89.47 38.7334 89.9517 38.0599 89.9856 37.0857C90.0206 36.0809 89.4875 35.4107 88.6168 35.0531C87.9843 34.794 87.2917 34.6803 86.622 34.5163C85.7044 34.2911 84.7594 34.1511 83.8691 33.8493C82.1507 33.2666 81.303 32.0934 81.2844 30.4545C81.2669 28.9052 82.1988 27.5975 83.8134 26.9798C85.7219 26.2494 87.5265 26.5227 89.2537 27.6729C89.3542 27.4193 89.4416 27.1984 89.5399 26.9491C90.0872 26.9491 90.617 26.9491 91.2146 26.9491C91.2146 28.2918 91.2146 29.583 91.2146 30.9443C90.6137 30.9443 90.0468 30.9443 89.4132 30.9443C89.1444 30.0346 88.6048 29.2933 87.6981 28.8614C86.9148 28.4886 86.0922 28.3596 85.2532 28.552C84.8414 28.6471 84.4088 28.8221 84.081 29.0812C83.0432 29.9045 83.1459 31.2723 84.3399 31.8485C85.0773 32.2049 85.9294 32.3252 86.7334 32.5406C87.7483 32.8117 88.8047 32.9747 89.7726 33.3595C91.1796 33.9193 91.8875 35.0455 91.9848 36.5838C92.0929 38.2939 91.6002 39.6977 90.0533 40.5582C88.1034 41.6428 86.0922 41.6417 84.0767 40.7211C83.7489 40.5713 83.4441 40.3712 83.0279 40.1384Z" fill="#A8B0B7"/>
<path d="M70.5676 21.8278C70.5829 22.1602 70.5949 22.3953 70.6091 22.7091C53.4908 22.7091 36.439 22.7091 19.3152 22.7091C19.2846 22.4762 19.2551 22.2411 19.2027 21.841C21.6683 21.7765 24.0684 22.076 26.4783 21.8727C28.9362 21.6649 31.4456 21.6267 33.8937 21.8836C36.3396 22.1395 38.7342 21.7043 41.1572 21.806C43.5912 21.9088 46.0338 21.8289 48.4721 21.8289C50.9105 21.8289 53.3498 21.8289 55.7881 21.8289C58.2636 21.8289 60.7379 21.8289 63.2134 21.8289C65.644 21.8278 68.0747 21.8278 70.5676 21.8278Z" fill="#A8B0B7"/>
<path d="M62.4367 3.25598C62.2947 3.25051 62.1527 3.24504 62.0107 3.23958L62.027 3.2527C61.8992 2.97498 61.9254 2.56278 61.4524 2.58903C61.0373 2.61199 60.8942 2.86783 60.9073 3.24832L60.9368 3.23411C60.5479 2.88423 60.1186 2.96624 59.6521 3.06245C59.5909 3.78079 59.7176 4.36574 60.2781 4.79652L60.2518 4.77247C60.3196 5.08298 60.3676 5.39896 60.4605 5.70182C60.6855 6.43984 60.8123 7.17677 60.5643 7.9618C59.9853 8.12252 59.5887 7.75516 59.1845 7.49056C58.3423 6.9406 57.4967 6.38736 56.7167 5.75649C56.4939 5.57609 56.3639 5.10704 56.4076 4.80199C56.5704 3.65396 56.6348 2.45892 57.4946 1.53175C57.6082 1.4082 57.6322 1.20155 57.6977 1.03317L57.6748 1.05613C57.7753 0.805754 57.8758 0.554281 57.9337 0.409958C58.3718 0.313742 58.8448 0.240487 59.2982 0.10163C59.7897 -0.0492539 60.3436 -0.0689344 60.6211 0.306088C61.0788 0.924931 61.7048 1.10862 62.3537 1.33603C62.6071 1.4246 62.8256 1.61484 63.1555 1.81821C62.6912 2.27632 62.168 2.62511 62.4247 3.28987L62.4367 3.25598ZM62.1549 2.27851C62.1374 2.23915 62.1264 2.18448 62.1101 2.1823C62.0467 2.17464 61.9812 2.18448 61.9167 2.18886C61.9276 2.21947 61.9353 2.27304 61.9506 2.27523C62.0161 2.28398 62.0838 2.27851 62.1549 2.27851ZM60.0192 0.748899C59.9656 0.722659 59.9121 0.697511 59.8586 0.671271C59.8378 0.725939 59.7876 0.793727 59.8039 0.830902C59.8258 0.879009 59.9023 0.90197 59.9558 0.935864C59.9776 0.873543 59.9984 0.811221 60.0192 0.748899Z" fill="#A8B0B7"/>
<path d="M42.1284 12.6491C42.7282 12.8077 43.2897 13.3128 44.0467 12.8197C43.9637 10.5247 44.5886 8.57419 46.9395 7.52565C48.2329 6.94836 49.4805 6.80185 50.9094 7.34525C50.7073 7.61968 50.5762 7.82086 50.4221 8.00236C49.3953 9.20943 48.6579 10.5761 48.1477 12.0729C47.7042 13.3729 47.6594 13.4003 46.0775 13.4801C46.0393 13.1718 46.0011 12.8602 45.9607 12.5234C45.0496 12.5639 45.5401 13.2855 45.3249 13.7294C44.8966 13.8125 44.4007 14.3745 44.0467 13.4921C44.0019 13.3795 43.6742 13.3576 43.4732 13.3358C42.9346 13.2756 42.3819 13.2614 42.135 12.6437C42.1339 12.6437 42.1284 12.6491 42.1284 12.6491ZM46.3856 8.8016C46.2567 8.82129 46.0644 8.79286 46.0076 8.8683C45.2407 9.87966 45.1916 11.0233 45.2921 12.3102C45.9082 11.8805 45.9213 11.8794 45.8962 11.3141C45.858 10.4329 45.8678 9.56368 46.3507 8.77536C46.3408 8.76224 46.3299 8.74803 46.3201 8.73491C46.3419 8.75787 46.3638 8.77974 46.3856 8.8016Z" fill="#A8B0B7"/>
<path d="M44.6487 45.9801C45.5335 45.9801 46.4359 45.9135 47.3251 45.9976C48.3039 46.0906 49.0479 46.6263 49.2893 47.6257C49.5264 48.6086 49.1866 49.4144 48.3269 49.9775C48.2668 50.0168 48.2176 50.0715 48.2045 50.0835C49.0686 51.319 49.9295 52.5491 50.8362 53.8458C49.9262 54.1038 49.392 53.9507 48.9758 53.2149C48.5486 52.4616 48.0079 51.7662 47.4638 51.0872C47.0531 50.5755 46.5014 50.3219 45.7171 50.6018C45.7171 51.6481 45.7171 52.7251 45.7171 53.8764C45.3129 53.9158 45.0059 53.9464 44.7404 53.9726C44.4466 53.6315 44.404 47.3217 44.6487 45.9801ZM45.7629 49.4035C46.6303 49.4035 47.4267 49.5631 47.927 48.7901C48.198 48.3713 48.2034 47.8553 47.8964 47.4584C47.3459 46.7444 46.5681 46.9161 45.7618 47.0123C45.7629 47.7908 45.7629 48.5331 45.7629 49.4035Z" fill="#A8B0B7"/>
<path d="M41.9241 53.9256C41.4173 53.9256 41.0622 53.9256 40.6635 53.9256C40.3183 53.1515 39.9807 52.3938 39.6333 51.6132C38.5158 51.6132 37.4288 51.6132 36.2173 51.6132C35.8863 52.3425 35.5323 53.1231 35.1784 53.9038C34.7884 53.9038 34.4432 53.9038 33.9844 53.9038C34.4061 52.9132 34.7851 52.0134 35.1729 51.1179C35.8524 49.5489 36.5254 47.9767 37.2333 46.4208C37.3338 46.2 37.6069 45.9365 37.8188 45.9201C38.0275 45.9037 38.3683 46.1234 38.4633 46.3268C39.6137 48.7967 40.7279 51.2841 41.9241 53.9256ZM37.8516 47.3961C37.4179 48.5179 37.0596 49.444 36.6685 50.4553C37.5249 50.4553 38.2591 50.4553 39.1232 50.4553C38.6993 49.4396 38.318 48.5212 37.8516 47.3961Z" fill="#A8B0B7"/>
<path d="M28.8128 50.5647C28.8128 51.7226 28.8128 52.7689 28.8128 53.8896C28.4425 53.917 28.1377 53.9399 27.7499 53.9683C27.7499 51.271 27.7499 48.6459 27.7499 45.9737C28.8467 45.9737 29.8976 45.8873 30.9278 45.9956C32.1458 46.1235 32.8253 46.949 32.8799 48.1057C32.9335 49.245 32.3042 50.1 31.0938 50.3592C30.4001 50.5089 29.6693 50.4947 28.8128 50.5647ZM28.8773 49.3839C29.5338 49.3839 30.1106 49.4429 30.6699 49.3686C31.3145 49.2833 31.6717 48.7793 31.6608 48.1506C31.6498 47.511 31.2795 47.0638 30.6077 47.0004C30.0505 46.9479 29.4836 46.9894 28.8784 46.9894C28.8773 47.828 28.8773 48.5365 28.8773 49.3839Z" fill="#A8B0B7"/>
<path d="M48.2985 13.0657C48.5716 12.2544 48.695 11.6465 48.9703 11.1184C49.4717 10.1551 50.0496 9.22907 50.6221 8.30409C51.0022 7.69071 51.531 7.3955 52.2869 7.62839C52.6594 7.74319 53.0571 7.77381 53.3499 7.82629C53.5421 8.93605 53.7202 9.96162 53.9157 11.0889C52.2596 11.8903 50.4265 12.4425 48.2985 13.0657Z" fill="#A8B0B7"/>
<path d="M63.3401 47.4442C62.783 47.2452 62.3241 47.0167 61.8413 46.9292C61.4655 46.8603 61.034 46.8898 60.6713 47.009C59.9743 47.2386 59.8247 47.9515 60.3545 48.4763C60.632 48.7518 60.999 48.9399 61.3344 49.1531C61.8555 49.4822 62.4214 49.7512 62.9009 50.1316C63.7017 50.768 63.9486 51.7017 63.6394 52.5676C63.3226 53.4544 62.5776 53.9857 61.542 53.9978C61.0394 54.0032 60.5031 54.012 60.0388 53.8513C59.0578 53.5112 58.7497 53.4598 59.0152 52.1172C59.3003 52.2943 59.5384 52.5141 59.817 52.6015C60.3589 52.7699 60.9204 52.9383 61.4808 52.9678C61.968 52.9941 62.3995 52.724 62.5514 52.1992C62.6912 51.7148 62.4476 51.3387 62.0925 51.061C61.7233 50.7713 61.3071 50.5416 60.9149 50.2814C60.4615 49.9808 59.9678 49.7249 59.5701 49.3641C58.4395 48.3374 58.7432 46.6679 60.1502 46.0731C60.9149 45.7505 61.7135 45.7637 62.5022 45.967C63.3805 46.1923 63.4559 46.3388 63.3401 47.4442Z" fill="#A8B0B7"/>
<path d="M68.3697 9.98784C68.2506 9.47068 68.1304 8.95243 68.0234 8.48775C68.5871 8.20348 69.0852 7.95201 69.7483 7.61853C70.0007 7.86016 70.3393 8.18489 70.5797 8.41559C70.2224 9.23561 69.9417 9.88069 69.7265 10.376C70.0444 11.2037 70.3087 11.9034 70.5807 12.601C70.7905 13.1378 70.7348 13.6386 70.2377 13.9535C69.7123 14.2869 69.7756 14.7155 69.8969 15.1911C70.0378 15.7444 70.1809 16.2965 70.3284 16.8673C69.886 17.0028 69.5495 17.1067 69.2119 17.2106L69.2381 17.2445C69.0721 16.2812 68.906 15.3191 68.7039 14.1437C68.4778 14.5515 68.3325 14.8128 68.1698 15.1048C67.8584 14.7024 67.5209 14.3832 67.0227 14.8238L67.0555 14.8413C66.9779 13.6112 67.1057 12.4173 67.7142 11.3196C67.8049 11.1566 67.9928 11.0484 68.1348 10.9139L68.1119 10.8899C69.0306 10.8877 69.1475 10.7685 69.4184 9.56034C69.2425 9.30231 69.0666 9.03553 68.8722 8.78187C68.8624 8.76984 68.6974 8.8759 68.6056 8.92728L68.5816 8.93166C68.0867 9.205 68.2856 9.63359 68.3347 10.0294L68.3697 9.98784ZM67.3242 14.3274C67.8114 14.2946 68.0452 14.2782 68.3861 14.2552C67.8868 13.7435 67.8868 13.7435 67.3242 14.3274Z" fill="#A8B0B7"/>
<path d="M57.6956 1.03324C57.1286 0.938115 56.9505 1.37655 56.7266 1.74611C55.8952 3.11172 55.9695 4.58885 56.1815 6.15345C57.3864 6.46943 57.9359 7.57591 58.8797 8.3839C57.7567 9.4226 56.4589 10.0075 55.0289 10.6876C55.0289 9.59316 54.9984 8.66052 55.0497 7.73226C55.0628 7.48407 55.2802 7.19761 55.4823 7.02048C55.9783 6.58642 56.0078 5.98616 55.822 5.51602C55.3086 4.21164 55.6647 3.00019 56.0012 1.7636C56.0602 1.54712 56.0897 1.32298 56.152 1.00481C56.5835 1.05073 57.1209 0.652748 57.6715 1.0562L57.6956 1.03324Z" fill="#A8B0B7"/>
<path d="M55.042 53.9617C54.6739 53.9409 54.3647 53.9245 54.0064 53.9038C54.0064 51.2414 54.0064 48.6469 54.0064 45.9791C54.3527 45.955 54.6586 45.9331 54.8978 45.9167C55.2267 46.1901 55.2977 52.2484 55.042 53.9617Z" fill="#A8B0B7"/>
<path d="M50.0366 12.9377C51.0962 12.5856 52.157 12.238 53.2144 11.8804C53.5531 11.7656 53.883 11.6268 54.2501 11.4868C54.7668 12.1844 55.2573 12.8448 55.8111 13.5915C54.9437 13.8649 54.1353 14.0114 53.2767 13.7785C52.1996 13.4855 51.1159 13.2154 50.0355 12.9344C50.0344 12.9366 50.0366 12.9377 50.0366 12.9377Z" fill="#A8B0B7"/>
<path d="M67.925 21.1675C66.755 21.5338 65.0235 21.5622 64.0076 21.162C64.3277 21.0833 64.5013 21.0112 64.6794 21.0024C65.0749 20.9827 65.4725 21.0002 65.8691 20.9948C67.0609 20.9762 67.2499 20.7039 66.8949 19.5286C66.7299 18.983 66.5639 18.4374 66.3978 17.8918L66.3705 17.9082C66.636 17.9213 66.8271 17.8809 66.9353 17.566C67.133 16.9931 67.3974 16.4431 67.6344 15.8833C67.6967 15.891 67.7601 15.8986 67.8223 15.9063C67.9196 16.4989 68.0179 17.0926 68.1151 17.6852L68.1446 17.6655C67.9239 17.5485 67.7022 17.4315 67.4815 17.3145C67.4203 17.5682 67.3045 17.824 67.3144 18.0744C67.3242 18.3127 67.5012 18.5391 67.5427 18.7807C67.677 19.5821 67.7841 20.3879 67.901 21.1916L67.925 21.1675ZM67.0117 18.1969C66.932 18.2515 66.8512 18.3062 66.7714 18.3609C66.8697 18.4942 66.9637 18.6309 67.0718 18.7545C67.0817 18.7654 67.2324 18.6779 67.2302 18.6725C67.1647 18.5117 67.0871 18.3554 67.0117 18.1969Z" fill="#A8B0B7"/>
<path d="M69.8084 24.9899C70.9511 24.9899 72.0949 24.9615 73.2365 25.0008C73.8657 25.0227 74.0536 25.5978 74.4851 26.2003C73.1458 26.2003 71.9714 26.2779 70.8167 26.1576C70.4114 26.115 70.0575 25.5869 69.6795 25.2807C69.7221 25.1845 69.7647 25.0872 69.8084 24.9899Z" fill="#A8B0B7"/>
<path d="M25.7781 21.2002C25.8972 21.1357 26.0151 21.0166 26.1342 21.0166C28.6348 21.0155 31.1364 21.0264 33.637 21.045C33.7277 21.0461 33.8184 21.1434 33.8719 21.3118C31.1572 21.4659 28.4797 21.4473 25.8021 21.443C25.7934 21.3621 25.7857 21.2811 25.7781 21.2002Z" fill="#A8B0B7"/>
<path d="M68.9945 17.6764C69.0961 18.5697 69.2338 19.4608 69.2873 20.3573C69.3233 20.974 68.728 21.5163 68.1238 21.489C68.0528 21.4857 67.9906 21.279 67.9239 21.1675L67.8999 21.1948C68.2943 20.9303 68.4374 20.5454 68.3948 20.0916C68.3194 19.2826 68.2287 18.4746 68.1435 17.6666L68.114 17.6862C68.2735 17.8524 68.4319 18.0197 68.6318 18.2286C68.7061 17.9804 68.7553 17.8175 68.8033 17.6545L68.7826 17.6797C68.8591 17.683 68.9355 17.6852 69.012 17.6884L68.9945 17.6764ZM69.0437 18.8124C68.9104 18.7184 68.8208 18.632 68.7138 18.5937C68.6854 18.5839 68.5433 18.7479 68.5597 18.7884C68.6012 18.89 68.7039 18.9666 68.7815 19.0529C68.8503 18.9895 68.9191 18.9272 69.0437 18.8124Z" fill="#A8B0B7"/>
<path d="M54.273 10.5017C53.8688 9.70356 53.7705 8.8562 53.9758 7.98261C54.0108 7.835 54.238 7.73223 54.5079 7.4895C54.5079 8.61238 54.5079 9.54939 54.5079 10.4853C54.4292 10.4908 54.3505 10.4962 54.273 10.5017Z" fill="#A8B0B7"/>
<path d="M43.4077 19.6826C43.3105 19.5985 43.116 19.4924 43.1291 19.4323C43.3957 18.2514 43.6862 17.0772 44.0347 15.9149C44.2729 17.2149 43.5945 18.3695 43.482 19.6116L43.4077 19.6826Z" fill="#A8B0B7"/>
<path d="M20.7736 21.3468C20.2799 21.3468 19.7861 21.3468 19.2934 21.3468C19.7861 20.9182 20.2744 20.8909 20.7736 21.3468Z" fill="#A8B0B7"/>
<path d="M69.3823 21.3249C69.7177 20.8931 70.1263 20.9543 70.667 21.138C70.2399 21.6212 69.8018 21.396 69.3823 21.3249Z" fill="#A8B0B7"/>
<path d="M61.5649 3.67257C61.4175 3.88796 61.2689 4.10335 61.1214 4.31765L61.1443 4.2925C60.9182 4.37341 60.6932 4.45541 60.467 4.53742L60.4933 4.56803C60.798 4.17551 61.0755 3.77425 60.9346 3.23413L60.9051 3.24834C61.0985 3.44843 61.1542 3.86063 61.5868 3.69444L61.5649 3.67257Z" fill="#A8B0B7"/>
<path d="M41.9165 12.4239C41.4326 12.1079 41.2075 11.6705 41.284 11.0889L41.2632 11.1053C41.4785 11.547 41.6937 11.9898 41.9089 12.4315L41.9165 12.4239Z" fill="#A8B0B7"/>
<path d="M26.3767 16.5863C26.7317 16.6486 27.0868 16.7109 27.4418 16.7743C27.4342 16.8378 27.4276 16.9001 27.42 16.9635C27.2222 16.9755 27.0245 16.9876 26.8268 16.9996L26.8541 17.0302C26.6946 16.9493 26.5362 16.8673 26.3767 16.7864L26.4139 16.8279C26.4128 16.7383 26.4128 16.6475 26.4117 16.5579L26.3767 16.5863Z" fill="#A8B0B7"/>
<path d="M19.8494 16.7798C19.5435 17.2084 19.5435 17.2084 19.0006 17.0061C19.2945 16.9416 19.5872 16.8782 19.8822 16.8137C19.8822 16.8126 19.8494 16.7798 19.8494 16.7798Z" fill="#A8B0B7"/>
<path d="M66.6196 15.9401C66.7649 15.5738 66.9113 15.2086 67.0565 14.8423L67.0238 14.8237C66.8785 15.1889 66.7332 15.553 66.5879 15.9182L66.6196 15.9401Z" fill="#A8B0B7"/>
<path d="M68.3697 10.6897C68.3697 10.4558 68.3697 10.2218 68.3697 9.98779L68.3358 10.0304C68.4713 10.131 68.6057 10.2305 68.7848 10.3639C68.6057 10.4831 68.4713 10.5738 68.3358 10.6646L68.3697 10.6897Z" fill="#A8B0B7"/>
<path d="M66.3968 17.8918C66.3203 17.6753 66.2449 17.4588 66.1685 17.2423L66.1488 17.2478C66.222 17.4675 66.2952 17.6884 66.3695 17.9082L66.3968 17.8918Z" fill="#A8B0B7"/>
<path d="M66.1717 17.0171C66.2471 16.806 66.3225 16.595 66.3978 16.384L66.3683 16.3523C66.2962 16.5721 66.223 16.7918 66.1509 17.0116L66.1717 17.0171Z" fill="#A8B0B7"/>
<path d="M69.213 17.2117C69.1398 17.3669 69.0677 17.5211 68.9945 17.6763L69.0131 17.6895C69.0885 17.5419 69.1638 17.3943 69.2392 17.2467C69.2392 17.2456 69.213 17.2117 69.213 17.2117Z" fill="#A8B0B7"/>
<path d="M66.3967 16.3851C66.471 16.2364 66.5453 16.0888 66.6185 15.9401L66.5879 15.9182C66.5147 16.0625 66.4404 16.208 66.3672 16.3523L66.3967 16.3851Z" fill="#A8B0B7"/>
<path d="M66.1687 17.2423C66.1698 17.1679 66.1709 17.0925 66.172 17.0182L66.1499 17.0116C66.1499 17.0903 66.1488 17.169 66.1488 17.2478L66.1687 17.2423Z" fill="#A8B0B7"/>
<path d="M68.1359 10.9161C68.2134 10.8407 68.2921 10.7653 68.3696 10.6898L68.3369 10.6647C68.2626 10.7401 68.1883 10.8156 68.1129 10.8921L68.1359 10.9161Z" fill="#A8B0B7"/>
<path d="M41.9089 12.4315C41.9821 12.5036 42.0553 12.5769 42.1285 12.6491L42.1339 12.6436C42.0607 12.5703 41.9886 12.4971 41.9154 12.4249C41.9165 12.4238 41.9089 12.4315 41.9089 12.4315Z" fill="#A8B0B7"/>
<path d="M60.4681 4.53748C60.396 4.6162 60.3228 4.69383 60.2507 4.77255L60.2769 4.7977C60.349 4.72116 60.4222 4.64462 60.4943 4.56809L60.4681 4.53748Z" fill="#A8B0B7"/>
<path d="M61.7856 3.45068C61.7124 3.52503 61.6392 3.59829 61.566 3.67264L61.589 3.69341C61.6611 3.61906 61.7332 3.54581 61.8053 3.47146L61.7856 3.45068Z" fill="#A8B0B7"/>
<path d="M38.1455 19.0682C37.9903 19.1131 37.8363 19.1568 37.6812 19.2016C37.6757 19.1645 37.6703 19.1273 37.6648 19.0912C37.8166 19.0912 37.9674 19.0912 38.1258 19.0857C38.1313 19.0803 38.1455 19.0682 38.1455 19.0682Z" fill="#A8B0B7"/>
<path d="M37.5599 20.319C37.4747 20.2348 37.3906 20.1506 37.3054 20.0653C37.3906 20.1495 37.4747 20.2337 37.5599 20.319Z" fill="#A8B0B7"/>
<path d="M24.6343 19.8412C24.7206 19.9276 24.8069 20.0128 24.8932 20.0992C24.8058 20.0128 24.7206 19.9265 24.6343 19.8412Z" fill="#A8B0B7"/>
<path d="M24.194 19.406C24.2803 19.4924 24.3666 19.5777 24.4529 19.664C24.3666 19.5777 24.2803 19.4913 24.194 19.406Z" fill="#A8B0B7"/>
<path d="M21.57 19.6575C21.8049 19.5023 22.0387 19.347 22.2735 19.1918C22.0387 19.347 21.8038 19.5023 21.57 19.6575Z" fill="#A8B0B7"/>
<path d="M22.232 19.2279C22.3172 19.1415 22.4024 19.054 22.4876 18.9677C22.4024 19.054 22.3172 19.1404 22.232 19.2279Z" fill="#A8B0B7"/>
<path d="M21.3526 19.8817C21.4378 19.7953 21.5241 19.7089 21.6093 19.6226C21.5241 19.7089 21.4389 19.7953 21.3526 19.8817Z" fill="#A8B0B7"/>
<path d="M35.3477 20.1025C35.4286 19.9429 35.5094 19.7822 35.5902 19.6226C35.5094 19.7822 35.4286 19.9418 35.3477 20.1025Z" fill="#A8B0B7"/>
<path d="M22.0518 18.5402C21.6716 18.6211 21.2914 18.7009 20.9113 18.7818C21.2914 18.7009 21.6716 18.62 22.0518 18.5402Z" fill="#A8B0B7"/>
<path d="M37.3425 17.0028C37.2584 17.0859 37.1743 17.1679 37.0901 17.251C37.1743 17.1679 37.2584 17.0848 37.3425 17.0028Z" fill="#A8B0B7"/>
<path d="M68.8051 17.6545C68.7852 17.66 68.7665 17.6655 68.7466 17.6709C68.7587 17.6742 68.772 17.6775 68.7841 17.6808C68.7841 17.6797 68.8051 17.6545 68.8051 17.6545Z" fill="#A8B0B7"/>
<path d="M68.607 8.92834C68.5993 8.95131 68.5927 8.97317 68.5849 8.99613C68.6081 8.98411 68.6313 8.97099 68.6545 8.95896C68.6291 8.95021 68.6048 8.94256 68.5816 8.93381C68.5827 8.93272 68.607 8.92834 68.607 8.92834Z" fill="#A8B0B7"/>
</g>
<defs>
<clipPath id="clip0_1_313">
<rect width="92" height="54" fill="white"/>
</clipPath>
</defs>
</svg>
