<svg width="82" height="54" viewBox="0 0 82 54" fill="none" xmlns="http://www.w3.org/2000/svg">
<g clip-path="url(#clip0_1_299)">
<path d="M41.2674 35.7566C31.3059 41.1206 20.1016 37.0042 15.2532 28.5641C17.0135 27.6621 18.7694 26.7613 20.6277 25.8086C22.8575 29.2391 25.9696 31.354 29.9738 31.9492C31.9606 32.2441 34.0063 32.2063 36.0661 31.3692C33.1022 27.7496 31.5303 23.7056 31.5227 19.1075C31.5151 14.5018 33.0586 10.4438 36.0585 6.74436C33.0139 5.77116 30.1437 5.85217 27.2669 6.91286C24.3596 7.98435 22.2072 9.94046 20.5025 12.5663C18.6997 11.6395 16.947 10.7387 15.1966 9.84001C18.7542 2.6485 29.9781 -3.61301 41.2794 2.43464C51.5143 -3.09562 62.7546 1.44416 67.4167 9.79248C65.6978 10.7473 63.9147 11.5812 62.076 12.5717C59.819 9.07744 56.708 6.83077 52.5578 6.19673C50.571 5.89321 48.5939 6.02391 46.5287 6.74328C49.4523 10.4146 51.023 14.4727 51.0165 19.1108C51.01 23.7208 49.4338 27.7432 46.4666 31.4102C49.5057 32.3488 52.3726 32.3186 55.2168 31.2838C58.0347 30.2588 60.1991 28.401 61.9158 25.8119C63.7262 26.7322 65.4854 27.6265 67.2446 28.5219C63.2328 36.1239 52.0894 41.5094 41.2674 35.7566ZM41.2718 10.2267C36.0291 15.353 36.8232 23.9703 41.3339 27.97C46.1125 23.3071 46.1049 14.773 41.2718 10.2267Z" fill="#A8B0B7"/>
<path d="M52.8791 48.3736C52.8791 46.0622 52.8791 43.7507 52.8791 41.3798C53.7135 41.3798 54.4259 41.3798 55.1394 41.3798C55.3649 42.1078 55.4422 52.0147 55.2146 53.7462C54.7429 53.7462 54.2473 53.7386 53.7527 53.7484C53.2571 53.7581 53.0905 53.3627 52.8639 53.0517C51.2082 50.778 49.5601 48.5 47.9077 46.2252C47.5482 45.7305 47.1789 45.2412 46.7399 44.6483C46.4251 45.4486 46.6049 46.1885 46.5722 46.9014C46.5373 47.6553 46.5602 48.4114 46.5591 49.1664C46.558 49.8858 46.5591 50.6052 46.5591 51.3245C46.5591 52.0752 46.5591 52.8259 46.5591 53.6684C45.7443 53.6684 45.0058 53.6684 44.2684 53.6684C44.0505 52.8864 44.0102 42.5669 44.2411 41.3215C45.1845 41.3215 46.1528 41.3333 47.1212 41.3161C47.6234 41.3074 47.7867 41.6909 48.0111 42.003C49.4022 43.9332 50.7866 45.8688 52.1776 47.799C52.3345 48.0172 52.5186 48.2159 52.6907 48.4233C52.755 48.406 52.817 48.3898 52.8791 48.3736Z" fill="#A8B0B7"/>
<path d="M42.1247 53.6964C41.0921 53.6964 40.2348 53.6964 39.2545 53.6964C38.8961 52.9609 38.5061 52.1626 38.0998 51.3277C35.9507 51.3277 33.8211 51.3277 31.6328 51.3277C31.3463 51.9337 31.0238 52.5375 30.7766 53.1704C30.6045 53.6111 30.3441 53.7818 29.879 53.7645C29.196 53.7396 28.512 53.758 27.6231 53.758C29.4716 49.5088 31.3125 45.4313 33.1479 41.3484C34.3015 41.3484 35.3864 41.3484 36.5726 41.3484C38.3907 45.3935 40.2185 49.4569 42.1247 53.6964ZM34.9845 44.1081C34.9071 44.1092 34.8298 44.1092 34.7525 44.1103C34.1174 45.6279 33.3745 47.1022 32.8081 48.7494C34.2808 48.7494 35.5977 48.7494 37.0726 48.7494C36.3417 47.1249 35.6631 45.616 34.9845 44.1081Z" fill="#A8B0B7"/>
<path d="M59.7808 53.5938C59.7808 49.5531 59.7808 45.5026 59.7808 41.384C62.6522 41.384 65.4669 41.384 68.3502 41.384C68.5637 42.1423 68.4885 42.9103 68.3916 43.8057C66.3579 43.8057 64.3406 43.8057 62.2502 43.8057C62.2502 44.6665 62.2502 45.4021 62.2502 46.2695C64.1412 46.2695 66.0072 46.2695 67.9352 46.2695C67.9352 47.166 67.9352 47.9329 67.9352 48.7991C66.0387 48.7991 64.1989 48.7991 62.2677 48.7991C62.2677 49.6567 62.2677 50.4172 62.2677 51.2726C64.6303 51.2726 66.9418 51.2726 69.3295 51.2726C69.3295 52.1032 69.3295 52.842 69.3295 53.5765C68.4918 53.8174 60.7917 53.8368 59.7808 53.5938Z" fill="#A8B0B7"/>
<path d="M14.5604 41.3539C15.3022 41.3539 15.9852 41.3539 16.7989 41.3539C16.9372 42.7915 16.7858 44.2195 16.9013 45.7824C17.9623 45.7857 18.9622 45.79 19.9622 45.7911C20.9763 45.7921 21.9904 45.7911 23.12 45.7911C23.3575 44.334 23.108 42.8974 23.2834 41.4036C24.0328 41.4036 24.7692 41.4036 25.5829 41.4036C25.5829 45.4595 25.5829 49.511 25.5829 53.6609C24.8618 53.6609 24.1265 53.6609 23.2507 53.6609C23.2507 51.9132 23.2507 50.171 23.2507 48.3477C21.0765 48.3477 19.0385 48.3477 16.8697 48.3477C16.8697 50.1289 16.8697 51.8765 16.8697 53.689C16.0321 53.689 15.3218 53.689 14.6171 53.689C14.3851 52.9156 14.3295 42.7624 14.5604 41.3539Z" fill="#A8B0B7"/>
<path d="M9.94732 49.228C10.5464 49.6536 11.1521 50.0846 11.7446 50.5058C10.8416 52.8616 7.98117 54.3608 5.32115 53.9234C2.39643 53.4427 0.135077 50.8904 0.00654227 47.9232C-0.125261 44.8719 1.88664 42.1046 4.77868 41.3798C7.95938 40.5827 10.8198 42.4189 11.8187 44.7271C11.2185 45.1646 10.5954 45.6182 9.97129 46.073C8.0803 43.4936 5.81459 42.9644 3.86369 44.5792C2.06855 46.0654 1.95636 48.769 3.62296 50.4129C5.42245 52.1898 7.7644 51.7739 9.94732 49.228Z" fill="#A8B0B7"/>
<path d="M72.8588 41.3733C73.6888 41.3733 74.4023 41.3733 75.2563 41.3733C75.2563 44.6796 75.2563 47.9308 75.2563 51.2565C77.5666 51.2565 79.7365 51.2565 82 51.2565C82 52.0947 82 52.8551 82 53.6846C78.9598 53.6846 75.936 53.6846 72.8588 53.6846C72.8588 49.5628 72.8588 45.5156 72.8588 41.3733Z" fill="#A8B0B7"/>
</g>
<defs>
<clipPath id="clip0_1_299">
<rect width="82" height="54" fill="white"/>
</clipPath>
</defs>
</svg>
