<svg width="98" height="46" viewBox="0 0 98 46" fill="none" xmlns="http://www.w3.org/2000/svg">
<g clip-path="url(#clip0_1_386)">
<path fill-rule="evenodd" clip-rule="evenodd" d="M0.484253 36.2799C4.50943 36.1313 5.52697 35.3428 5.52697 33.4685V6.10847C5.52697 4.23419 4.50943 3.3999 0.484253 3.25133V2.61133H16.7311C27.3057 2.61133 30.0716 6.7999 30.0716 10.8456C30.0716 14.4913 27.2607 17.9942 19.7894 18.7313V18.8799C27.5474 19.177 31.3308 22.577 31.3308 27.3085C31.3308 32.2399 27.9859 36.9713 17.1696 36.9713H0.484253V36.2799ZM16.1015 18.4342C21.4365 18.4342 22.842 15.577 22.842 10.9885C22.842 6.74847 21.6783 3.49704 15.9553 3.49704H12.6104V18.4342H16.1015ZM16.6862 36.0342C22.8926 36.0342 24.0113 32.7828 24.0113 27.3085C24.0113 22.9713 22.1674 19.3199 16.2027 19.3199H12.616V36.0342H16.6918H16.6862Z" fill="#A8B0B7"/>
<path fill-rule="evenodd" clip-rule="evenodd" d="M41.7086 0.788511C41.3207 1.08565 41.0284 1.33137 41.0284 1.87423C41.0284 1.97137 41.079 2.21708 41.1746 2.46851C41.5625 3.20565 42.3383 3.15994 42.58 3.15994C43.1141 3.15994 43.6482 3.01137 44.7163 2.71423C45.1998 2.61708 45.7338 2.46851 46.2679 2.31994C46.9931 2.11994 49.3711 1.53137 51.8447 1.53137C53.5424 1.53137 57.8094 1.82851 61.5928 4.9828C65.6686 8.3828 67.4619 13.4628 67.4619 18.6399C67.4619 24.5542 65.3256 28.4514 64.0664 30.2742C61.2555 34.4628 56.4489 37.6685 51.3106 37.6685C50.681 37.6685 49.5622 37.6171 48.0106 37.2742C44.3734 36.4857 42.2877 35.0057 41.0284 34.2171C40.202 35.3028 39.6679 36.1885 39.6679 37.5714C39.6679 38.4571 39.9603 39.1999 40.0559 39.4914C40.4438 40.3314 41.169 41.5142 43.0129 42.4514C45.3909 43.6342 47.8645 43.6342 48.7864 43.6342C49.4667 43.6342 55.0435 43.5371 58.439 41.2685C59.895 40.2799 60.4291 39.2971 60.7664 38.6571L61.3454 38.9999C60.4741 40.6285 59.7432 41.6628 58.2928 42.7942C56.8368 43.8799 53.9303 45.6057 49.5622 45.6057C48.837 45.6057 44.9074 45.5085 42.2371 43.6857C41.8998 43.4399 41.0228 42.7485 40.2976 41.7599C39.1339 40.1314 38.9371 38.6057 38.9371 37.8628C38.9371 35.8399 40.1514 34.2628 40.4381 33.7714C39.8085 33.1314 39.2238 32.4914 38.6448 31.8514C37.3349 30.3199 34.4229 26.8742 34.4229 21.1542C34.4229 18.8857 34.8613 14.0057 39.7579 10.5028C41.1184 9.56565 42.6194 8.82851 44.1204 8.08565C43.7325 7.88565 43.294 7.63994 42.9061 7.39423C40.5787 5.96565 39.8984 4.23994 39.8984 2.95994C39.8984 1.33137 40.8204 0.691368 41.2589 0.348511L41.6974 0.794225L41.7086 0.788511ZM49.759 34.4114L50.2425 33.8685C50.0457 33.5714 49.804 33.2799 49.5622 33.0799C49.0788 32.6342 48.0612 32.0457 46.459 32.0457C45.6326 32.0457 44.7107 32.2457 44.5701 32.2914C44.8119 32.6342 45.3965 33.6228 46.2679 34.4628C47.1393 35.3028 49.18 36.8799 52.3281 36.8799C53.6886 36.8799 56.3027 36.4857 58.8775 34.0228C61.739 31.2114 62.9027 27.0742 62.9027 23.1257C62.9027 21.4514 62.7565 16.9142 59.4565 12.9714C58.9225 12.3771 57.7082 10.9999 55.8193 10.1142C54.605 9.51994 53.1039 9.07994 50.2874 9.02851C46.7963 8.87994 47.0381 8.97708 44.8062 8.33708C42.9623 11.2971 41.5063 13.2171 41.5063 19.9199C41.5063 20.9085 41.5063 21.8914 41.6018 22.8799C41.9391 26.3828 42.67 28.3542 44.0754 31.6057C44.5589 31.4571 46.1105 30.8685 47.7633 30.8685C49.3149 30.8685 50.2369 31.2114 51.6423 31.8057C52.0302 31.0171 52.4181 30.2799 52.4181 29.3885C52.4181 28.6971 52.1764 28.1085 52.0808 27.9085C51.5973 27.0228 50.8215 26.4285 49.7028 24.8514C49.3149 24.2628 47.2292 21.0571 47.2292 17.9485C47.2292 15.5828 48.4435 12.9714 50.0401 11.2914C50.4786 10.7999 50.8159 10.5028 51.884 9.81137C51.6423 10.5999 51.4455 11.0914 51.4455 11.9314C51.4455 13.9028 52.806 15.5314 53.9697 16.9085C54.307 17.3028 54.5993 17.6971 54.8917 18.0914C55.4257 18.8285 56.8312 20.6571 56.8312 23.3142C56.8312 24.5485 56.5894 25.9771 55.3245 28.3428C53.7729 31.0571 52.3169 32.6342 50.1863 34.8971L49.7478 34.4057L49.759 34.4114Z" fill="#A8B0B7"/>
<path fill-rule="evenodd" clip-rule="evenodd" d="M68.2882 36.2799C72.3134 36.1313 73.3309 35.3428 73.3309 33.4685V6.10847C73.3309 4.23419 72.3134 3.3999 68.2882 3.25133V2.61133H97.1447L97.482 14.4913L96.7568 14.5885C93.3612 6.74847 91.1294 3.49704 85.0691 3.49704H80.4143V19.177H82.4494C86.3284 19.177 88.4647 17.5999 89.7746 12.5713H90.4042V26.8685H89.7746C88.4647 21.7885 86.3284 20.1142 82.4494 20.1142H80.4143V33.4742C80.4143 35.3942 81.1395 36.2342 85.5526 36.3828V36.977H68.2882V36.2856V36.2799Z" fill="#A8B0B7"/>
</g>
<defs>
<clipPath id="clip0_1_386">
<rect width="98" height="46" fill="white"/>
</clipPath>
</defs>
</svg>
