<svg width="99" height="40" viewBox="0 0 99 40" fill="none" xmlns="http://www.w3.org/2000/svg">
<g clip-path="url(#clip0_1_295)">
<path d="M96.9443 7.73033C95.0586 9.09994 93.2611 10.4061 91.4133 11.7479C91.0668 11.4553 90.7583 11.2005 90.4554 10.9391C88.6948 9.41702 86.7755 8.16313 84.5052 7.52784C81.6961 6.74235 78.8926 6.84804 76.1584 7.81155C73.6098 8.70941 71.6748 10.3872 70.3234 12.7348C68.1201 16.5599 67.7378 20.5852 69.0815 24.7441C70.5324 29.2368 73.9418 31.6088 78.3315 32.757C81.4122 33.5626 84.3934 33.2188 87.1745 31.6044C89.3968 30.3149 90.4609 28.3712 90.4151 25.6876C87.3221 25.6876 84.2492 25.6876 81.0947 25.6876C81.0947 23.4324 81.0947 21.3018 81.0947 19.1645C81.847 18.9442 97.2215 18.8674 98.9653 19.0921C98.9653 20.4718 99.0559 21.8725 98.9452 23.2577C98.7675 25.4796 98.2388 27.6358 97.4753 29.7397C96.6973 31.8803 95.4777 33.7183 93.7663 35.2081C90.4028 38.1364 86.4938 39.7319 82.0046 39.9655C76.7576 40.2381 71.98 38.9119 67.6462 35.9858C63.261 33.0241 60.8398 28.7906 59.9466 23.6938C58.8467 17.4121 60.4787 11.7746 64.5006 6.85917C67.4439 3.26326 71.3562 1.18049 75.9035 0.392769C83.9608 -1.00354 90.8209 1.3674 96.5028 7.18627C96.6302 7.31311 96.7319 7.46553 96.9443 7.73033Z" fill="#A8B0B7"/>
<path d="M0 1.44863C0.25151 1.42527 0.43148 1.393 0.611449 1.393C4.74516 1.40524 8.8811 1.34071 13.0115 1.46977C15.0828 1.5343 17.1921 1.75904 19.1986 2.25526C23.3536 3.2833 26.4499 5.86674 28.4587 9.58058C32.2347 16.5599 32.532 23.7339 29.0824 30.9235C26.7081 35.8723 22.6639 38.6516 17.2156 39.476C14.5909 39.8732 11.9618 40.0167 9.3137 39.9967C6.63204 39.9767 3.95039 39.9922 1.26985 39.9922C0.868549 39.9922 0.468368 39.9922 0 39.9922C0 27.1106 0 14.3403 0 1.44863ZM7.67162 32.9729C10.55 33.251 13.349 33.2544 16.1425 32.6536C18.9762 32.0439 20.9547 30.4295 22.1541 27.8316C23.3793 25.1769 23.7772 22.3699 23.5715 19.4827C23.4016 17.0962 22.8539 14.7909 21.6109 12.7092C20.3332 10.5686 18.5402 9.16002 15.9972 8.71165C13.2954 8.23546 10.588 8.31445 7.87283 8.38343C7.8147 8.38454 7.75881 8.46354 7.67162 8.52807C7.67162 16.6411 7.67162 24.7797 7.67162 32.9729Z" fill="#A8B0B7"/>
<path d="M59.3061 39.4136C58.1659 39.4136 57.0257 39.4225 55.8856 39.4114C54.9958 39.4025 53.9909 39.6183 53.2497 39.2779C52.5075 38.9363 52.0291 38.0273 51.4333 37.3687C51.2365 37.1506 51.0342 36.937 50.9235 36.8168C49.4737 37.6224 48.1379 38.5135 46.687 39.1366C44.3317 40.1468 41.8949 40.2247 39.3776 39.5516C35.1153 38.4112 32.9255 33.3867 34.3261 29.4915C34.7632 28.2766 35.4093 27.2107 36.3807 26.3685C37.4426 25.4472 38.5481 24.575 39.7028 23.6259C39.3988 23.2287 39.0579 22.8059 38.7426 22.3653C37.8953 21.1815 37.1263 19.9588 36.9809 18.4624C36.6735 15.3137 38.0541 12.8849 40.9101 11.8836C43.7862 10.8756 46.526 11.127 49.1719 12.6502C52.2985 14.4492 52.5164 18.6059 50.4932 20.8288C49.6 21.809 48.5403 22.6402 47.5477 23.5302C47.3029 23.7505 47.0279 23.9374 46.6993 24.1911C47.4974 25.1279 48.2564 26.0236 49.0221 26.9159C49.7912 27.8126 50.5658 28.7049 51.4254 29.7007C52.8384 28.2298 54.1854 26.828 55.5949 25.3604C56.6233 26.4497 57.6104 27.4944 58.6913 28.6404C57.2582 30.1468 55.8654 31.611 54.4123 33.1375C56.0924 35.1702 57.7389 37.164 59.3855 39.1566C59.3575 39.2412 59.3318 39.328 59.3061 39.4136ZM42.5689 26.8992C41.2387 27.8972 40.1611 28.9408 39.4804 30.3404C39.1685 30.9824 38.9628 31.6544 39.1216 32.3776C39.5061 34.1388 41.7071 35.8211 43.5291 35.672C45.3333 35.5251 46.6333 34.4626 47.9021 33.2432C46.0912 31.0903 44.3787 29.052 42.5689 26.8992ZM43.9685 21.5487C44.8191 20.8333 45.5748 20.2926 46.213 19.6384C47.0358 18.7961 47.199 17.7114 46.8044 16.641C46.4333 15.6341 45.5826 15.0801 44.5207 14.9054C43.1513 14.6795 42.0234 15.4984 41.7585 16.8502C41.5853 17.7325 41.6993 18.5491 42.2314 19.279C42.7511 19.9911 43.3033 20.682 43.9685 21.5487Z" fill="#A8B0B7"/>
</g>
<defs>
<clipPath id="clip0_1_295">
<rect width="99" height="40" fill="white"/>
</clipPath>
</defs>
</svg>
