<svg width="101" height="40" viewBox="0 0 101 40" fill="none" xmlns="http://www.w3.org/2000/svg">
<g clip-path="url(#clip0_1_307)">
<path d="M0 39.4839C0.234212 38.7284 0.661706 38.8237 1.01985 38.8021C2.30574 38.7273 3.59277 38.6683 4.8798 38.6002C5.14471 38.5866 5.41075 38.5787 5.67225 38.5401C7.34926 38.2905 7.98027 37.6088 8.08714 35.9322C8.10647 35.6304 8.10647 35.3276 8.10647 35.0247C8.1076 24.6645 8.1076 14.3032 8.10647 3.94307C8.10647 3.75363 8.11215 3.5642 8.10306 3.37589C8.04848 2.27669 7.57779 1.5938 6.5045 1.30114C5.74388 1.09468 4.94347 1.02662 4.15556 0.933601C3.40403 0.845121 2.64569 0.819031 1.89303 0.731684C1.69861 0.708997 1.51897 0.562664 1.2154 0.416331C1.4553 0.233698 1.57695 0.0748868 1.72589 0.0431246C1.98057 -0.0124594 2.2523 0.0022874 2.51721 0.0022874C9.26275 0.0022874 16.0094 -0.011325 22.755 0.010228C26.1874 0.0215716 29.5505 0.509349 32.7829 1.71405C38.404 3.80808 42.1957 7.67967 43.9318 13.4207C45.6043 18.953 45.3837 24.424 42.7562 29.6387C39.6728 35.7598 34.5838 38.9757 27.7666 39.5122C27.0504 39.569 26.3273 39.5769 25.6087 39.5769C17.5739 39.5814 9.54016 39.5814 1.50532 39.5758C1.03576 39.578 0.567339 39.5202 0 39.4839ZM14.8543 19.8718C14.8543 25.5788 14.852 31.2858 14.8554 36.9939C14.8566 38.3416 14.902 38.4096 16.2686 38.3801C19.1827 38.3178 22.0989 38.2701 25.0095 38.1192C28.7387 37.9253 31.7971 36.3939 33.9778 33.3016C34.5645 32.4701 35.1841 31.6363 35.6105 30.7209C38.5177 24.4694 38.9724 18.0863 36.4655 11.5887C34.3109 6.00535 30.31 2.67826 24.3547 1.69703C21.4895 1.22513 18.613 1.38394 15.7377 1.37374C15.0578 1.37147 14.9202 1.57565 14.8645 2.29711C14.8406 2.59772 14.8543 2.90173 14.8543 3.20347C14.8543 8.75959 14.8543 14.3157 14.8543 19.8718Z" fill="#A8B0B7"/>
<path d="M70.7889 40C69.8952 39.8503 68.7105 39.772 67.6009 39.4419C64.8813 38.6331 63.0622 36.8362 62.123 34.1433C60.6416 29.8928 61.7945 25.4381 65.1075 22.7293C67.5497 20.7328 70.3955 20.2178 73.4357 20.5456C74.3669 20.6466 75.3105 20.87 76.1871 21.2001C79.4866 22.4411 81.1568 24.9946 81.7559 28.3466C82.9759 35.1744 78.0972 39.0165 73.554 39.7311C72.7342 39.8593 71.9008 39.8945 70.7889 40ZM77.5503 30.8445C77.506 28.2684 77.0899 26.2821 76.2883 24.745C75.6789 23.5778 74.8501 22.6124 73.6358 22.0407C70.7468 20.6829 67.7259 21.9205 66.5003 24.9957C65.4361 27.666 65.535 30.3908 66.265 33.1178C66.6811 34.673 67.3814 36.0876 68.5332 37.2423C70.5581 39.2717 73.5244 39.2808 75.5095 37.2038C76.0439 36.6445 76.4532 35.9299 76.7874 35.2232C77.4651 33.7916 77.5231 32.2307 77.5503 30.8445Z" fill="#A8B0B7"/>
<path d="M96.3294 39.3409C95.4448 39.6154 85.9342 39.6097 84.9678 39.308C85.2737 38.9427 85.6682 39.0346 86.0104 39.0097C88.2946 38.8474 88.6834 38.447 88.6754 36.1658C88.6629 32.6141 88.6402 29.0635 88.6129 25.5118C88.6027 24.2209 88.0774 23.8387 86.8165 24.1733C86.3435 24.2992 85.8751 24.441 85.3987 24.5533C85.3089 24.5749 85.1941 24.4909 84.9099 24.3945C85.2407 24.171 85.4442 23.96 85.6909 23.8784C87.7068 23.217 89.6771 22.4627 91.5428 21.4327C92.3978 20.9608 92.7048 21.1876 92.7184 22.1655C92.7344 23.3271 92.7219 24.4898 92.7219 25.9032C93.0277 25.5504 93.1914 25.3837 93.3301 25.1988C93.9623 24.3514 94.5171 23.4326 95.2391 22.6714C95.795 22.0849 96.4999 21.554 97.2424 21.241C99.1991 20.4151 101.256 21.917 100.975 23.8829C100.897 24.4342 100.651 24.8845 100.175 25.192C99.6311 25.5436 99.0956 25.5277 98.6022 25.125C98.4282 24.9832 98.2838 24.8029 98.1406 24.627C97.0991 23.3497 96.7546 23.2987 95.4585 24.2913C93.6792 25.6536 92.6104 27.3529 92.6889 29.6999C92.7673 32.0401 92.7093 34.3837 92.7287 36.7262C92.7423 38.2973 93.1266 38.7091 94.6922 38.92C95.2118 38.9904 95.7314 39.063 96.2475 39.1481C96.2839 39.1583 96.3021 39.2751 96.3294 39.3409Z" fill="#A8B0B7"/>
<path d="M47.7929 39.1822C47.9509 39.1277 48.1056 39.0404 48.267 39.0256C48.6047 38.9939 48.9492 39.0211 49.2869 38.9871C50.8274 38.8328 51.3084 38.3677 51.3197 36.8374C51.3482 33.0248 51.3425 29.2111 51.3266 25.3974C51.322 24.2448 50.782 23.8648 49.6279 24.1314C49.114 24.2494 48.6104 24.4105 48.0976 24.533C48.0021 24.5557 47.8839 24.4853 47.6155 24.4184C47.8634 24.2017 48.0089 23.9715 48.2033 23.9181C50.2953 23.3498 52.2645 22.507 54.1632 21.4634C55.0774 20.9608 55.3673 21.1855 55.3707 22.2699C55.3832 26.0836 55.3764 29.8962 55.3764 33.71C55.3764 34.8046 55.365 35.9004 55.3809 36.9951C55.4003 38.2747 55.7141 38.6445 56.9999 38.8974C57.4058 38.978 57.8254 38.9825 58.2369 39.0358C58.4803 39.0676 58.7202 39.1243 58.943 39.1674C58.943 39.2888 58.9498 39.3285 58.9407 39.3637C58.9328 39.3932 58.9066 39.4397 58.8873 39.4397C55.4116 39.4726 51.9348 39.5043 48.458 39.5281C48.2443 39.5293 48.0294 39.4635 47.8145 39.4295C47.8088 39.3466 47.8009 39.2638 47.7929 39.1822Z" fill="#A8B0B7"/>
<path d="M53.0854 14.3305C51.6506 14.3271 50.4761 13.1598 50.484 11.7441C50.492 10.3409 51.7029 9.13393 53.0979 9.13734C54.5191 9.14074 55.664 10.3103 55.6629 11.7566C55.6606 13.2301 54.5566 14.3327 53.0854 14.3305Z" fill="#A8B0B7"/>
</g>
<defs>
<clipPath id="clip0_1_307">
<rect width="101" height="40" fill="white"/>
</clipPath>
</defs>
</svg>
