<svg width="98" height="44" viewBox="0 0 98 44" fill="none" xmlns="http://www.w3.org/2000/svg">
<g clip-path="url(#clip0_1_373)">
<path d="M55.9048 0.798181C55.2125 0.746222 54.71 0.707528 53.9811 0.652252C54.1986 0.360392 54.3073 0.0707442 54.436 0.0619C58.463 -0.217799 62.2094 0.360393 64.9617 3.71125C67.6897 7.03225 67.521 11.6644 64.569 14.8063C62.5688 16.9356 60.0594 17.9958 57.1584 18.0201C51.8367 18.0643 46.515 18.051 41.1933 18.0256C39.0334 18.0157 37.0465 17.3789 35.2748 16.1263C30.1229 12.4836 30.1828 5.41818 35.3924 1.85507C37.0853 0.696473 38.9724 0.0972768 41.0081 0.0397894C43.0393 -0.017698 45.0728 0.0187844 47.1052 0.0265231C47.4436 0.0276286 47.9073 -0.092874 47.8452 0.644513C47.2594 0.690945 46.657 0.739588 45.9137 0.799287C47.3981 4.91185 48.8514 8.93597 50.3035 12.959C50.3812 12.9656 50.46 12.9723 50.5376 12.9778C52.3048 8.96803 54.0721 4.95718 55.9048 0.798181ZM48.6018 17.3689C47.8307 15.2795 47.1163 13.3492 46.4041 11.4179C45.1949 8.13778 43.9901 4.85768 42.7753 1.57979C42.4525 0.707528 42.4336 0.708634 41.4884 0.73185C39.2031 0.787126 37.1297 1.45376 35.3236 2.87105C31.1302 6.1622 31.1025 11.9209 35.2648 15.2485C36.9921 16.6293 38.9879 17.3623 41.1889 17.4264C43.4409 17.4916 45.6963 17.4463 47.9506 17.4441C48.1247 17.4441 48.2989 17.4043 48.6018 17.3689ZM49.2751 17.3988C49.7411 17.4209 50.034 17.4452 50.3257 17.4463C52.3958 17.4496 54.467 17.4994 56.5338 17.4264C57.6299 17.3877 58.7492 17.2418 59.8042 16.951C61.7401 16.4182 63.3465 15.316 64.579 13.7163C66.6824 10.9867 66.7434 7.31748 64.6644 4.57909C62.6231 1.89044 59.8309 0.748433 56.4761 0.740694C54.0632 6.32361 51.688 11.8159 49.2751 17.3988Z" fill="#A8B0B7"/>
<path d="M87.2014 37.5017C87.1847 35.1956 87.8204 33.3416 89.4678 31.9011C91.4136 30.1986 93.8709 30.213 95.7835 31.9498C96.7364 32.8165 97.4276 33.8579 97.7049 35.1149C98.335 37.9672 98.071 40.6039 95.7635 42.7353C93.9097 44.4478 91.1108 44.4323 89.2759 42.6071C87.796 41.1345 87.1337 39.3822 87.2014 37.5017ZM89.0806 37.3016C89.1272 37.305 89.1738 37.3072 89.2204 37.3105C89.2204 37.9351 89.176 38.5631 89.2293 39.1821C89.3458 40.5154 89.6409 41.7945 90.5916 42.8282C91.7986 44.1393 93.4926 44.1316 94.6031 42.7331C95.028 42.198 95.4107 41.5601 95.5805 40.909C96.1917 38.5608 96.2039 36.1762 95.6027 33.8248C95.4263 33.136 95.0446 32.455 94.6087 31.8846C93.5669 30.5203 91.7276 30.5071 90.5816 31.7928C89.9826 32.465 89.5588 33.2388 89.4367 34.1365C89.2914 35.1868 89.1971 36.2448 89.0806 37.3016Z" fill="#A8B0B7"/>
<path d="M56.2986 31.0576C56.1677 31.0819 56.0368 31.1118 55.9048 31.1305C55.0617 31.2499 54.9774 31.3063 54.9407 32.1509C54.8864 33.4013 54.8564 34.6539 54.8553 35.9042C54.8531 38.2236 54.882 40.543 54.8897 42.8624C54.8908 43.2106 54.8487 43.5589 54.7078 43.948C53.1846 42.0443 51.9299 39.9936 50.5942 38.0003C49.2652 36.0159 47.9617 34.0149 46.464 32.0492C46.4374 32.351 46.3897 32.6529 46.3886 32.9547C46.3764 35.8998 46.3697 38.846 46.3642 41.7911C46.3619 43.445 46.3642 43.445 47.8984 43.7789C47.5712 43.791 47.245 43.8087 46.9177 43.8154C46.5483 43.8231 46.1789 43.8297 45.8095 43.8242C45.4445 43.8176 45.0806 43.7944 44.6979 43.6473C44.8432 43.6131 44.9897 43.5456 45.1328 43.55C45.8117 43.5722 46.0314 43.1587 46.0913 42.5838C46.1101 42.4014 46.1245 42.2168 46.1257 42.0333C46.1412 38.6459 46.1545 35.2586 46.1634 31.8712C46.1645 31.6568 46.119 31.4423 46.0913 31.1914C45.5876 31.1571 45.1239 31.125 44.5204 31.083C44.9919 30.6706 45.4345 30.8475 45.8195 30.8475C46.5872 30.8475 47.4713 30.7005 48.0892 31.0255C48.6695 31.3295 48.9823 32.1565 49.3905 32.7678C50.8827 35.0054 52.3648 37.2496 53.8547 39.4883C54.0266 39.747 54.2285 39.9869 54.5968 40.1815C54.5968 39.7912 54.5968 39.401 54.5968 39.0107C54.6002 36.8384 54.6079 34.666 54.6068 32.4937C54.6057 31.2831 54.598 31.2842 53.3577 31.1118C53.3011 31.104 53.2534 31.0255 53.1214 30.9105C54.2307 30.9105 55.258 30.9105 56.2864 30.9105C56.2897 30.9592 56.2942 31.0078 56.2986 31.0576Z" fill="#A8B0B7"/>
<path d="M84.3358 40.1925C84.3358 39.4673 84.3358 38.7421 84.3358 38.0168C84.3347 36.248 84.3358 34.4802 84.3325 32.7114C84.3303 31.2521 84.327 31.2521 82.9791 31.052C83.6891 30.7889 84.4446 30.7646 85.9921 30.9547C85.9622 31.0067 85.9322 31.1018 85.9056 31.0995C84.6021 31.0387 84.6043 31.6158 84.5965 32.5213C84.5677 35.9108 84.5821 39.3003 84.5799 42.6899C84.5799 43.0846 84.5799 43.4803 84.5799 43.8772C84.0197 43.9734 83.9731 43.5445 83.8133 43.3035C81.5291 39.8642 79.2582 36.4149 76.9818 32.9712C76.7677 32.6473 76.5347 32.3355 76.1642 31.8115C76.1298 32.3864 76.0976 32.6992 76.0954 33.0121C76.081 36.0335 76.071 39.0549 76.0599 42.0763C76.0599 42.2234 76.0544 42.3715 76.0632 42.5185C76.1143 43.3753 76.2285 43.4837 77.136 43.5467C77.2802 43.5566 77.4233 43.5688 77.5664 43.5909C77.5919 43.5942 77.6108 43.6473 77.6885 43.7534C76.5536 43.7534 75.473 43.7534 74.3936 43.7534C74.387 43.718 74.3814 43.6827 74.3748 43.6473C74.4979 43.6152 74.6199 43.571 74.7453 43.5533C75.6028 43.4273 75.7304 43.309 75.838 42.4721C75.8658 42.2543 75.8658 42.031 75.8669 41.8099C75.8791 38.6415 75.8913 35.473 75.8968 32.3035C75.8979 31.9431 75.8591 31.5838 75.838 31.209C75.2966 31.157 74.8363 31.1139 74.3759 31.0697C74.3792 31.0045 74.3825 30.9392 74.3847 30.874C75.4409 30.874 76.5014 30.8243 77.5509 30.9072C77.8238 30.9282 78.1178 31.3262 78.3108 31.6125C79.895 33.9684 81.457 36.3386 83.0279 38.7034C83.3729 39.223 83.7279 39.7348 84.0785 40.25C84.1661 40.2301 84.2515 40.2113 84.3358 40.1925Z" fill="#A8B0B7"/>
<path d="M60.1869 43.6352C60.5719 43.5954 60.9568 43.5545 61.4971 43.4981C61.5404 39.4519 61.557 35.3902 61.5381 31.2699C60.4876 31.0278 59.5279 31.1792 58.5916 31.5418C58.0125 31.7663 57.7862 32.2682 57.6853 32.8364C57.5976 33.335 57.5266 33.8369 57.3236 34.3256C57.3236 33.2256 57.3236 32.1244 57.3236 31.0256C58.0747 30.7646 66.0078 30.6828 67.6275 30.9316C67.6275 32.0736 67.6275 33.23 67.6275 34.3875C67.5986 34.3985 67.5698 34.4085 67.541 34.4195C67.4633 33.9618 67.3557 33.5064 67.3146 33.0465C67.2292 32.1023 66.7078 31.5628 65.8037 31.4014C65.056 31.2677 64.2971 31.1969 63.4252 31.083C63.4252 35.3106 63.4252 39.3756 63.4252 43.4793C63.86 43.5235 64.2883 43.5678 64.7165 43.612C64.7143 43.6584 64.7109 43.706 64.7087 43.7524C63.2055 43.7524 61.7012 43.7524 60.198 43.7524C60.1936 43.7126 60.1902 43.6739 60.1869 43.6352Z" fill="#A8B0B7"/>
<path d="M33.4011 30.9315C36.342 30.9315 39.2819 30.9315 42.3215 30.9315C42.4025 31.8955 42.4813 32.8341 42.5601 33.7727C42.5257 33.7838 42.4902 33.7959 42.4558 33.807C42.367 33.5881 42.2539 33.3758 42.194 33.1492C41.9033 32.0448 41.1478 31.4511 40.0529 31.377C38.9524 31.303 37.843 31.3605 36.5739 31.3605C36.5018 33.2266 36.5106 35.117 36.5129 36.9953C38.4731 37.3347 39.4083 37.2983 39.9342 35.1624C39.9342 36.6073 39.9342 38.0533 39.9342 39.4983C39.8953 39.5071 39.8576 39.5159 39.8188 39.5248C39.7711 39.3501 39.7056 39.1788 39.6768 39.0008C39.5093 37.9516 39.2519 37.6432 38.2268 37.5017C37.6943 37.4287 37.1441 37.4884 36.5539 37.4884C36.5539 39.5381 36.5539 41.4794 36.5539 43.4737C36.8712 43.5445 37.1452 43.6064 37.4181 43.6672C37.4181 43.6926 37.4181 43.7402 37.4181 43.7667C36.1756 43.7667 34.932 43.7667 33.6895 43.7667C33.684 43.7335 33.6784 43.6783 33.6729 43.6451C33.9868 43.5964 34.3008 43.5467 34.6957 43.4848C34.6957 39.4562 34.6957 35.4288 34.6957 31.335C34.2597 31.2499 33.8215 31.1637 33.3822 31.0774C33.3877 31.031 33.3944 30.9813 33.4011 30.9315Z" fill="#A8B0B7"/>
<path d="M23.6475 31.2433C23.1005 31.1935 22.6102 31.1493 22.0078 31.0952C22.8931 30.7137 26.1768 30.7071 27.132 31.0974C26.533 31.1449 26.0781 31.1814 25.6321 31.2157C25.3737 31.9939 25.2805 41.6364 25.5256 43.5611C26.9634 43.518 28.4233 43.7048 29.8755 43.4008C30.9338 43.1797 31.5174 42.4743 31.7326 41.4462C31.8269 40.9929 31.8968 40.5342 32.0532 40.1008C32.0532 41.2914 32.0532 42.4821 32.0532 43.749C28.7861 43.749 25.5944 43.749 22.4016 43.749C22.3972 43.7148 22.3928 43.6805 22.3883 43.6462C22.7877 43.602 23.1871 43.5589 23.6475 43.508C23.6475 39.4176 23.6475 35.3547 23.6475 31.2433Z" fill="#A8B0B7"/>
<path d="M15.8585 30.7568C17.2031 34.9855 18.5477 39.2141 19.9011 43.4704C20.2872 43.5257 20.6311 43.5743 20.975 43.623C20.9717 43.6683 20.9672 43.7136 20.9639 43.7589C19.5439 43.7589 18.1228 43.7589 16.7028 43.7589C16.6961 43.7169 16.6895 43.676 16.6828 43.634C17.0811 43.5821 17.4793 43.5301 17.9608 43.4671C17.5537 42.1979 17.1643 40.9841 16.7483 39.6884C15.5446 39.6884 14.3775 39.6884 13.1428 39.6884C12.7268 40.8846 12.2575 42.0664 12.1954 43.4306C12.6713 43.5025 13.054 43.56 13.4379 43.6174C13.4357 43.6572 13.4346 43.697 13.4323 43.7368C12.4816 43.7368 11.5309 43.7368 10.5801 43.7368C11.4255 43.6407 11.6773 43.0105 11.8959 42.3207C13.0285 38.7432 14.1723 35.1679 15.315 31.5926C15.4037 31.3151 15.5102 31.0443 15.6078 30.7701C15.691 30.7668 15.7742 30.7613 15.8585 30.7568ZM16.6717 39.3324C16.1037 37.4928 15.5856 35.8179 15.0687 34.1442C14.321 35.8588 13.7518 37.5381 13.3103 39.3324C14.4774 39.3324 15.5002 39.3324 16.6717 39.3324Z" fill="#A8B0B7"/>
<path d="M7.3585 38.9134C6.83265 40.5894 6.30681 42.2665 5.77986 43.9425C5.69111 43.9458 5.60347 43.9491 5.51472 43.9524C4.11468 39.7061 2.71576 35.4609 1.30796 31.188C0.890839 31.1471 0.509214 31.1095 -0.00109863 31.0598C0.965167 30.7337 3.82736 30.7259 4.91232 31.052C4.33656 31.104 3.92276 31.1416 3.36142 31.1924C4.34654 34.414 5.31392 37.5813 6.2824 40.7486C6.35784 40.7575 6.43328 40.7674 6.50983 40.7763C6.64073 40.4159 6.75056 40.0444 6.91031 39.6973C7.03456 39.4275 7.22204 39.1876 7.38179 38.9333L7.3585 38.9134Z" fill="#A8B0B7"/>
<path d="M70.1258 31.24C69.631 31.1836 69.2516 31.1394 68.7457 31.0819C69.6765 30.7226 72.4677 30.7171 73.4939 31.0797C72.9225 31.1416 72.5076 31.1869 72.0117 31.24C72.0117 35.3105 72.0117 39.3767 72.0117 43.4704C72.4233 43.5202 72.8072 43.5655 73.191 43.6119C73.1877 43.6639 73.1832 43.7159 73.1799 43.7678C71.7311 43.7678 70.2822 43.7678 68.8334 43.7678C68.83 43.7181 68.8267 43.6694 68.8234 43.6197C69.2394 43.5699 69.6554 43.5202 70.1258 43.4649C70.1258 39.3921 70.1258 35.357 70.1258 31.24Z" fill="#A8B0B7"/>
<path d="M7.38067 38.9333C7.45389 38.511 7.47718 38.0721 7.60809 37.6675C8.11508 36.0988 8.66311 34.5422 9.1834 32.9779C9.67818 31.492 9.60053 31.3616 8.12506 31.0675C8.70526 30.7436 10.3216 30.6916 11.6773 30.9934C11.4365 31.0719 11.33 31.1316 11.2202 31.1372C10.4936 31.177 10.123 31.586 9.88786 32.2482C9.22445 34.1132 8.52111 35.9639 7.82553 37.8168C7.68575 38.1882 7.51268 38.5475 7.35626 38.9123C7.35848 38.9134 7.38067 38.9333 7.38067 38.9333Z" fill="#A8B0B7"/>
<path d="M43.178 43.77C41.6992 43.77 38.5263 43.77 37.1751 43.77C37.1729 43.7346 37.1696 43.7003 37.1674 43.665C37.7697 43.5798 40.2026 43.54 40.7928 43.4019C42.2328 43.0658 42.6765 42.5373 42.8496 41.0769C42.8751 40.8625 42.9206 40.6513 42.9627 40.439C42.9672 40.418 43.0138 40.4059 43.1413 40.3296C43.3122 41.4705 43.2135 42.5605 43.178 43.77Z" fill="#A8B0B7"/>
</g>
<defs>
<clipPath id="clip0_1_373">
<rect width="98" height="44" fill="white"/>
</clipPath>
</defs>
</svg>
