<svg width="13" height="12" viewBox="0 0 13 12" fill="none" xmlns="http://www.w3.org/2000/svg">
<path d="M4.57501 5.12C4.88612 5.67111 5.26612 6.17111 5.71501 6.62C6.1639 7.06889 6.6639 7.44889 7.21501 7.76L7.80167 6.93333C7.89945 6.79111 8.03056 6.70222 8.19501 6.66667C8.35945 6.63111 8.51723 6.65333 8.66834 6.73333C9.61945 7.25778 10.6372 7.56 11.7217 7.64C11.8906 7.65778 12.035 7.72889 12.155 7.85333C12.275 7.97778 12.335 8.12889 12.335 8.30667V11.28C12.335 11.4489 12.2772 11.5978 12.1617 11.7267C12.0461 11.8556 11.9039 11.9289 11.735 11.9467C11.3795 11.9822 11.0239 12 10.6683 12C9.2639 12 7.92167 11.7289 6.64167 11.1867C5.40612 10.6622 4.31278 9.92444 3.36167 8.97333C2.41056 8.02222 1.67278 6.92889 1.14834 5.69333C0.606118 4.41333 0.335007 3.07111 0.335007 1.66667C0.335007 1.31111 0.352784 0.955555 0.38834 0.599999C0.406118 0.43111 0.479451 0.288889 0.60834 0.173333C0.737229 0.0577774 0.886118 0 1.05501 0H4.02834C4.20612 0 4.35723 0.0599995 4.48167 0.179999C4.60612 0.3 4.67723 0.444444 4.69501 0.613333C4.77501 1.69778 5.07723 2.71556 5.60167 3.66667C5.68167 3.81778 5.7039 3.97556 5.66834 4.14C5.63278 4.30444 5.5439 4.43556 5.40167 4.53333L4.57501 5.12ZM2.89501 4.68L4.16167 3.77333C3.80612 3 3.56167 2.18667 3.42834 1.33333H1.66834V1.66667C1.66834 2.88444 1.9039 4.05333 2.37501 5.17333C2.82834 6.24889 3.47056 7.20222 4.30167 8.03333C5.13278 8.86444 6.08612 9.50667 7.16167 9.96C8.28167 10.4311 9.45056 10.6667 10.6683 10.6667H11.0017V8.90667C10.1483 8.77333 9.33501 8.52889 8.56167 8.17333L7.65501 9.44C7.29056 9.29778 6.93501 9.12889 6.58834 8.93333L6.54834 8.92C5.89945 8.54667 5.30834 8.09333 4.77501 7.56C4.24167 7.02667 3.78834 6.43556 3.41501 5.78667L3.40167 5.74667C3.20612 5.4 3.03723 5.04444 2.89501 4.68Z" fill="#A8B0B7"/>
</svg>
