<svg width="13" height="16" viewBox="0 0 13 16" fill="none" xmlns="http://www.w3.org/2000/svg">
<path d="M6.33501 13.3602L9.62834 10.0536C10.2328 9.45801 10.6417 8.75579 10.855 7.9469C11.0595 7.15579 11.0595 6.36468 10.855 5.57357C10.6417 4.76468 10.235 4.06023 9.63501 3.46023C9.03501 2.86023 8.33056 2.45357 7.52167 2.24023C6.73056 2.03579 5.93945 2.03579 5.14834 2.24023C4.33945 2.45357 3.63501 2.86023 3.03501 3.46023C2.43501 4.06023 2.02834 4.76468 1.81501 5.57357C1.61056 6.36468 1.61056 7.15579 1.81501 7.9469C2.02834 8.75579 2.43723 9.45801 3.04167 10.0536L6.33501 13.3602ZM6.33501 15.2402L2.09501 11.0002C1.32167 10.2358 0.801673 9.32912 0.535007 8.28023C0.26834 7.2669 0.26834 6.25357 0.535007 5.24023C0.801673 4.19135 1.31945 3.28246 2.08834 2.51357C2.85723 1.74468 3.76612 1.22246 4.81501 0.9469C5.82834 0.689123 6.84167 0.689123 7.85501 0.9469C8.9039 1.22246 9.81279 1.74468 10.5817 2.51357C11.3506 3.28246 11.8683 4.19135 12.135 5.24023C12.4017 6.25357 12.4017 7.2669 12.135 8.28023C11.8683 9.32912 11.3483 10.2358 10.575 11.0002L6.33501 15.2402ZM6.33501 8.09357C6.57501 8.09357 6.79723 8.03357 7.00167 7.91357C7.20612 7.79357 7.36834 7.63135 7.48834 7.4269C7.60834 7.22246 7.66834 7.00023 7.66834 6.76023C7.66834 6.52023 7.60834 6.29801 7.48834 6.09357C7.36834 5.88912 7.20612 5.7269 7.00167 5.6069C6.79723 5.4869 6.57501 5.4269 6.33501 5.4269C6.09501 5.4269 5.87278 5.4869 5.66834 5.6069C5.4639 5.7269 5.30167 5.88912 5.18167 6.09357C5.06167 6.29801 5.00167 6.52023 5.00167 6.76023C5.00167 7.00023 5.06167 7.22246 5.18167 7.4269C5.30167 7.63135 5.4639 7.79357 5.66834 7.91357C5.87278 8.03357 6.09501 8.09357 6.33501 8.09357ZM6.33501 9.4269C5.85501 9.4269 5.41056 9.3069 5.00167 9.0669C4.59278 8.8269 4.26834 8.50246 4.02834 8.09357C3.78834 7.68468 3.66834 7.23801 3.66834 6.75357C3.66834 6.26912 3.78834 5.82468 4.02834 5.42023C4.26834 5.01579 4.59278 4.69357 5.00167 4.45357C5.41056 4.21357 5.85501 4.09357 6.33501 4.09357C6.81501 4.09357 7.25945 4.21357 7.66834 4.45357C8.07723 4.69357 8.40167 5.01579 8.64167 5.42023C8.88167 5.82468 9.00167 6.26912 9.00167 6.75357C9.00167 7.23801 8.88167 7.68468 8.64167 8.09357C8.40167 8.50246 8.07723 8.8269 7.66834 9.0669C7.25945 9.3069 6.81501 9.4269 6.33501 9.4269Z" fill="#A8B0B7"/>
</svg>
