<svg width="16" height="21" viewBox="0 0 16 21" fill="none" xmlns="http://www.w3.org/2000/svg">
<path d="M8 0.875L15.1925 2.4675C15.3908 2.51417 15.5542 2.61917 15.6825 2.7825C15.8108 2.94583 15.875 3.12667 15.875 3.325V12.0575C15.875 12.9442 15.6679 13.7725 15.2537 14.5425C14.8396 15.3125 14.265 15.9425 13.53 16.4325L8 20.125L2.47 16.4325C1.735 15.9425 1.16042 15.3125 0.74625 14.5425C0.332083 13.7725 0.125 12.9442 0.125 12.0575V3.325C0.125 3.12667 0.189167 2.94583 0.3175 2.7825C0.445833 2.61917 0.609167 2.51417 0.8075 2.4675L8 0.875ZM8 2.66L1.875 4.025V12.0575C1.875 12.6525 2.01208 13.2067 2.28625 13.72C2.56042 14.2333 2.9425 14.6533 3.4325 14.98L8 18.025L12.5675 14.98C13.0575 14.6533 13.4396 14.2333 13.7137 13.72C13.9879 13.2067 14.125 12.6525 14.125 12.0575V4.025L8 2.66ZM11.9025 7.1925L13.1275 8.435L7.5625 14L3.8525 10.29L5.095 9.0475L7.5625 11.5325L11.9025 7.1925Z" fill="white"/>
</svg>
