<svg width="367" height="464" viewBox="0 0 367 464" fill="none" xmlns="http://www.w3.org/2000/svg">
<path d="M0 6.0349C0 2.70192 2.70192 0 6.0349 0H217.798C223.716 0 226.098 7.63334 221.23 10.999L9.46679 157.399C5.46392 160.166 0 157.301 0 152.435V6.0349Z" fill="#95979A"/>
<path d="M366.352 457.414C366.352 460.747 363.65 463.449 360.317 463.449H148.554C142.635 463.449 140.254 455.816 145.122 452.45L356.885 306.05C360.888 303.283 366.352 306.148 366.352 311.015V457.414Z" fill="#95979A"/>
<path d="M227.637 309.327C231.366 311.698 231.366 317.14 227.637 319.511L9.37111 458.322C5.35345 460.877 0.0976562 457.991 0.0976562 453.23V381.29C0.0976562 379.226 1.15242 377.305 2.89399 376.197L92.0271 319.511C95.7555 317.14 95.7555 311.698 92.0271 309.327L2.89395 252.64C1.1524 251.532 0.0976562 249.611 0.0976562 247.547V175.606C0.0976562 170.845 5.35349 167.959 9.37115 170.514L227.637 309.327Z" fill="#95979A"/>
<path d="M139.46 144.71C135.732 147.082 135.732 152.524 139.46 154.895L357.727 293.706C361.744 296.261 367 293.375 367 288.614V216.673C367 214.609 365.945 212.689 364.204 211.581L275.071 154.895C271.342 152.524 271.342 147.082 275.071 144.71L364.204 88.0235C365.945 86.9159 367 84.9951 367 82.9312V10.99C367 6.22866 361.744 3.34256 357.727 5.8977L139.46 144.71Z" fill="#95979A"/>
</svg>
