<svg width="16" height="18" viewBox="0 0 16 18" fill="none" xmlns="http://www.w3.org/2000/svg">
<path d="M1.875 8.81934C1.875 8.971 1.98 9.15184 2.19 9.36184C2.435 9.59517 2.77917 9.82267 3.2225 10.0443C3.82917 10.3477 4.54667 10.5839 5.375 10.7531C6.20333 10.9223 7.07833 11.0068 8 11.0068C8.92167 11.0068 9.79667 10.9223 10.625 10.7531C11.4533 10.5839 12.1708 10.3477 12.7775 10.0443C13.2208 9.82267 13.565 9.59517 13.81 9.36184C14.02 9.15184 14.125 8.971 14.125 8.81934V6.91184C13.39 7.36684 12.4975 7.72267 11.4475 7.97934C10.3625 8.24767 9.21333 8.38184 8 8.38184C6.78667 8.38184 5.6375 8.24767 4.5525 7.97934C3.5025 7.72267 2.61 7.36684 1.875 6.91184V8.81934ZM14.125 11.2868C13.39 11.7418 12.4975 12.0977 11.4475 12.3543C10.3625 12.6227 9.21333 12.7568 8 12.7568C6.78667 12.7568 5.6375 12.6227 4.5525 12.3543C3.5025 12.0977 2.61 11.7418 1.875 11.2868V13.1943C1.875 13.346 1.98 13.5268 2.19 13.7368C2.435 13.9702 2.77917 14.1977 3.2225 14.4193C3.82917 14.7227 4.54667 14.9589 5.375 15.1281C6.20333 15.2973 7.07833 15.3818 8 15.3818C8.92167 15.3818 9.79667 15.2973 10.625 15.1281C11.4533 14.9589 12.1708 14.7227 12.7775 14.4193C13.2208 14.1977 13.565 13.9702 13.81 13.7368C14.02 13.5268 14.125 13.346 14.125 13.1943V11.2868ZM0.125 13.1943V4.44434C0.125 3.73267 0.480833 3.06767 1.1925 2.44934C1.8925 1.866 2.8375 1.39934 4.0275 1.04934C5.2525 0.68767 6.57667 0.506836 8 0.506836C9.42333 0.506836 10.7475 0.68767 11.9725 1.04934C13.1625 1.39934 14.1075 1.866 14.8075 2.44934C15.5192 3.06767 15.875 3.73267 15.875 4.44434V13.1943C15.875 13.906 15.5192 14.571 14.8075 15.1893C14.1075 15.7727 13.1625 16.2393 11.9725 16.5893C10.7475 16.951 9.42333 17.1318 8 17.1318C6.57667 17.1318 5.2525 16.951 4.0275 16.5893C2.8375 16.2393 1.8925 15.7727 1.1925 15.1893C0.480833 14.571 0.125 13.906 0.125 13.1943ZM8 6.63184C8.92167 6.63184 9.79667 6.54725 10.625 6.37809C11.4533 6.20892 12.1708 5.97267 12.7775 5.66934C13.2208 5.44767 13.565 5.22017 13.81 4.98684C14.02 4.77684 14.125 4.596 14.125 4.44434C14.125 4.29267 14.02 4.11184 13.81 3.90184C13.565 3.6685 13.2208 3.441 12.7775 3.21934C12.1708 2.916 11.4533 2.67975 10.625 2.51059C9.79667 2.34142 8.92167 2.25684 8 2.25684C7.07833 2.25684 6.20333 2.34142 5.375 2.51059C4.54667 2.67975 3.82917 2.916 3.2225 3.21934C2.77917 3.441 2.435 3.6685 2.19 3.90184C1.98 4.11184 1.875 4.29267 1.875 4.44434C1.875 4.596 1.98 4.77684 2.19 4.98684C2.435 5.22017 2.77917 5.44767 3.2225 5.66934C3.82917 5.97267 4.54667 6.20892 5.375 6.37809C6.20333 6.54725 7.07833 6.63184 8 6.63184Z" fill="#F2F827" fill-opacity="0.9"/>
</svg>
