<svg width="16" height="17" viewBox="0 0 16 17" fill="none" xmlns="http://www.w3.org/2000/svg">
<path d="M9.75 16.6943C9.505 16.6943 9.29792 16.6098 9.12875 16.4406C8.95958 16.2714 8.875 16.0643 8.875 15.8193V8.81934C8.875 8.57434 8.95958 8.36725 9.12875 8.19809C9.29792 8.02892 9.505 7.94434 9.75 7.94434H15C15.245 7.94434 15.4521 8.02892 15.6213 8.19809C15.7904 8.36725 15.875 8.57434 15.875 8.81934V15.8193C15.875 16.0643 15.7904 16.2714 15.6213 16.4406C15.4521 16.6098 15.245 16.6943 15 16.6943H9.75ZM1 9.69434C0.755 9.69434 0.547917 9.60975 0.37875 9.44059C0.209583 9.27142 0.125 9.06434 0.125 8.81934V1.81934C0.125 1.57434 0.209583 1.36725 0.37875 1.19809C0.547917 1.02892 0.755 0.944336 1 0.944336H6.25C6.495 0.944336 6.70208 1.02892 6.87125 1.19809C7.04042 1.36725 7.125 1.57434 7.125 1.81934V8.81934C7.125 9.06434 7.04042 9.27142 6.87125 9.44059C6.70208 9.60975 6.495 9.69434 6.25 9.69434H1ZM5.375 7.94434V2.69434H1.875V7.94434H5.375ZM1 16.6943C0.755 16.6943 0.547917 16.6098 0.37875 16.4406C0.209583 16.2714 0.125 16.0643 0.125 15.8193V12.3193C0.125 12.0743 0.209583 11.8673 0.37875 11.6981C0.547917 11.5289 0.755 11.4443 1 11.4443H6.25C6.495 11.4443 6.70208 11.5289 6.87125 11.6981C7.04042 11.8673 7.125 12.0743 7.125 12.3193V15.8193C7.125 16.0643 7.04042 16.2714 6.87125 16.4406C6.70208 16.6098 6.495 16.6943 6.25 16.6943H1ZM1.875 14.9443H5.375V13.1943H1.875V14.9443ZM10.625 14.9443H14.125V9.69434H10.625V14.9443ZM8.875 1.81934C8.875 1.57434 8.95958 1.36725 9.12875 1.19809C9.29792 1.02892 9.505 0.944336 9.75 0.944336H15C15.245 0.944336 15.4521 1.02892 15.6213 1.19809C15.7904 1.36725 15.875 1.57434 15.875 1.81934V5.31934C15.875 5.56434 15.7904 5.77142 15.6213 5.94059C15.4521 6.10975 15.245 6.19434 15 6.19434H9.75C9.505 6.19434 9.29792 6.10975 9.12875 5.94059C8.95958 5.77142 8.875 5.56434 8.875 5.31934V1.81934ZM10.625 2.69434V4.44434H14.125V2.69434H10.625Z" fill="#F2F827" fill-opacity="0.9"/>
</svg>
