<svg width="16" height="19" viewBox="0 0 16 19" fill="none" xmlns="http://www.w3.org/2000/svg">
<path d="M8.875 3.30934C10.17 3.44934 11.36 3.88684 12.445 4.62184C13.495 5.34517 14.3233 6.27267 14.93 7.40434C15.56 8.55934 15.875 9.80184 15.875 11.1318V19.0068H0.125V11.1318C0.125 9.80184 0.44 8.55934 1.07 7.40434C1.67667 6.27267 2.505 5.34517 3.555 4.62184C4.64 3.88684 5.83 3.44934 7.125 3.30934V0.631836H8.875V3.30934ZM14.125 17.2568V11.1318C14.125 10.0235 13.845 8.991 13.285 8.03434C12.7483 7.11267 12.0192 6.3835 11.0975 5.84684C10.1408 5.28684 9.10833 5.00684 8 5.00684C6.89167 5.00684 5.85917 5.28684 4.9025 5.84684C3.98083 6.3835 3.25167 7.11267 2.715 8.03434C2.155 8.991 1.875 10.0235 1.875 11.1318V17.2568H14.125ZM8 15.5068C7.20667 15.5068 6.47458 15.3114 5.80375 14.9206C5.13292 14.5298 4.60208 13.9989 4.21125 13.3281C3.82042 12.6573 3.625 11.9252 3.625 11.1318C3.625 10.3385 3.82042 9.60642 4.21125 8.93559C4.60208 8.26475 5.13292 7.73392 5.80375 7.34309C6.47458 6.95225 7.20667 6.75684 8 6.75684C8.79333 6.75684 9.52542 6.95225 10.1962 7.34309C10.8671 7.73392 11.3979 8.26475 11.7887 8.93559C12.1796 9.60642 12.375 10.3385 12.375 11.1318C12.375 11.9252 12.1796 12.6573 11.7887 13.3281C11.3979 13.9989 10.8671 14.5298 10.1962 14.9206C9.52542 15.3114 8.79333 15.5068 8 15.5068ZM8 13.7568C8.47833 13.7568 8.91875 13.6402 9.32125 13.4068C9.72375 13.1735 10.0417 12.8556 10.275 12.4531C10.5083 12.0506 10.625 11.6102 10.625 11.1318C10.625 10.6535 10.5083 10.2131 10.275 9.81059C10.0417 9.40809 9.72375 9.09017 9.32125 8.85684C8.91875 8.6235 8.47833 8.50684 8 8.50684C7.52167 8.50684 7.08125 8.6235 6.67875 8.85684C6.27625 9.09017 5.95833 9.40809 5.725 9.81059C5.49167 10.2131 5.375 10.6535 5.375 11.1318C5.375 11.6102 5.49167 12.0506 5.725 12.4531C5.95833 12.8556 6.27625 13.1735 6.67875 13.4068C7.08125 13.6402 7.52167 13.7568 8 13.7568ZM8 12.0068C7.755 12.0068 7.54792 11.9223 7.37875 11.7531C7.20958 11.5839 7.125 11.3768 7.125 11.1318C7.125 10.8868 7.20958 10.6798 7.37875 10.5106C7.54792 10.3414 7.755 10.2568 8 10.2568C8.245 10.2568 8.45208 10.3414 8.62125 10.5106C8.79042 10.6798 8.875 10.8868 8.875 11.1318C8.875 11.3768 8.79042 11.5839 8.62125 11.7531C8.45208 11.9223 8.245 12.0068 8 12.0068Z" fill="#F2F827" fill-opacity="0.9"/>
</svg>
