<svg width="125" height="46" viewBox="0 0 125 46" fill="none" xmlns="http://www.w3.org/2000/svg">
<path d="M87.439 45.4268L101.99 33.2711L107.141 28.3187L102.838 24.7021L97.959 29.3941L85.4586 43.523L87.439 45.4268ZM111.993 23.3893L124.071 10.2049L122.091 8.30118L108.265 19.7909C109.443 20.9229 111.126 22.5455 111.994 23.3874L111.993 23.3893Z" fill="#EAB308"/>
<path d="M112.458 45.4268L114.438 43.5226L104.351 32.3013L100.772 35.5288L112.458 45.4268ZM95.3556 30.819L99.3874 26.9425L92.4989 20.3195L77.8051 8.30118L75.8251 10.2049L88.4675 24.1961L95.3552 30.8186L95.3556 30.819Z" fill="white"/>
<path d="M119.693 37.8809L121.673 35.9767L107.691 20.4237L103.725 16.6102L99.7145 20.5075L103.659 24.3003L119.693 37.8809ZM94.6808 15.5189L99.023 12.1914L85.0411 0.754902L83.0611 2.65866L94.6804 15.5185L94.6808 15.5189Z" fill="white"/>
<path d="M79.5182 37.1255L90.5806 27.8841L87.2038 24.2955L77.5378 35.2217L79.5182 37.1255ZM95.9169 23.1936L102.026 17.3197L116.15 1.90366L114.17 -8.7738e-05L97.9942 13.4431L92.1072 19.1034L95.9165 23.1932L95.9169 23.1936Z" fill="#EAB308"/>
<path d="M38.5248 25.0112C38.7378 25.671 38.9036 26.4505 39.0219 27.3491H39.0932C39.1997 26.6895 39.3943 25.9212 39.6782 25.0454L43.1039 14.3813H48.6577L41.2758 33.2524C39.5014 37.7906 36.8277 40.0599 33.2553 40.0601C31.8948 40.0601 30.7762 39.9124 29.9008 39.6167V35.3169C30.6461 35.7378 31.457 35.9478 32.3325 35.9478C33.7756 35.9477 34.7813 35.2938 35.3491 33.9858L36.3071 31.8188L28.9252 14.3813H35.1362L38.5248 25.0112ZM24.0981 14.3813H28.1801V18.3569H24.0981V25.4204C24.0981 27.2404 24.8496 28.1509 26.352 28.1509C26.9435 28.1509 27.5531 27.9856 28.1801 27.6558V31.6479C27.3521 32.0688 26.1038 32.2797 24.436 32.2798C20.4847 32.2798 18.5082 30.3059 18.5082 26.3589V18.3569H15.5629V14.3813H18.5082V10.6108L24.0981 9.07471V14.3813ZM59.6772 13.9546C61.8183 13.9546 63.3683 14.228 64.3266 14.7739V19.3462C63.1555 18.5046 61.8479 18.0835 60.4047 18.0835C58.796 18.0836 57.5181 18.5388 56.5717 19.4487C55.6373 20.3472 55.1704 21.5929 55.1703 23.1851C55.1703 24.7319 55.62 25.9492 56.519 26.8364C57.4181 27.7123 58.6546 28.1509 60.228 28.1509C61.6237 28.1508 62.99 27.7298 64.3266 26.8882V31.2222C63.0608 31.9273 61.2327 32.2798 58.8432 32.2798C56.0514 32.2797 53.792 31.4659 52.0649 29.8394C50.3378 28.2128 49.4741 26.1141 49.4741 23.5435C49.4741 20.5748 50.3972 18.2379 52.2426 16.5317C54.0999 14.8142 56.5778 13.9547 59.6772 13.9546ZM73.6254 16.9751H73.6967C74.6924 15.5143 75.9468 14.5859 77.4594 14.1851L85.4614 23.0405V24.063L79.8715 30.3823V21.9233C79.8715 19.364 78.9015 18.0835 76.9614 18.0835C75.9677 18.0835 75.1634 18.4422 74.5483 19.1587C73.9331 19.8753 73.6254 20.7858 73.6254 21.8892V31.853H68.018V5.98682H73.6254V16.9751Z" fill="white"/>
<path d="M0 31.3925V27.0246C0.922752 27.5592 1.83959 27.9574 2.75051 28.219C3.67326 28.4806 4.54278 28.6114 5.35906 28.6114C6.3528 28.6114 7.13359 28.4806 7.70143 28.219C8.28111 27.9574 8.57095 27.5592 8.57095 27.0246C8.57095 26.6834 8.44082 26.399 8.18055 26.1715C7.92029 25.944 7.58313 25.745 7.16908 25.5744C6.76685 25.4037 6.32322 25.2502 5.83818 25.1137C5.35315 24.9772 4.88586 24.8236 4.43631 24.653C3.71467 24.3914 3.07584 24.1127 2.51982 23.817C1.97564 23.5098 1.51426 23.1572 1.1357 22.7591C0.76896 22.361 0.485036 21.9003 0.283924 21.3771C0.0946413 20.8538 0 20.2339 0 19.5173C0 18.5391 0.218858 17.6974 0.656574 16.9921C1.10612 16.2869 1.69763 15.7125 2.4311 15.2689C3.1764 14.8139 4.02225 14.484 4.96867 14.2793C5.92691 14.0631 6.92064 13.9551 7.94987 13.9551C8.75432 13.9551 9.5706 14.0176 10.3987 14.1428C11.2268 14.2565 12.0431 14.4271 12.8476 14.6546V18.8178C12.1377 18.4197 11.3747 18.1239 10.5584 17.9305C9.75397 17.7258 8.96134 17.6234 8.18055 17.6234C7.81382 17.6234 7.46483 17.6575 7.13359 17.7258C6.81417 17.7827 6.53025 17.8737 6.28181 17.9988C6.03338 18.1125 5.83818 18.2661 5.69622 18.4595C5.55426 18.6415 5.48328 18.8519 5.48328 19.0908C5.48328 19.4093 5.58975 19.6823 5.80269 19.9097C6.01564 20.1372 6.29364 20.3363 6.63672 20.5069C6.97979 20.6662 7.35836 20.814 7.77241 20.9505C8.1983 21.0757 8.61827 21.2065 9.03233 21.343C9.77763 21.5932 10.4519 21.8662 11.0553 22.1619C11.6586 22.4577 12.1732 22.8046 12.5991 23.2027C13.0368 23.6008 13.3681 24.0672 13.5929 24.6018C13.8295 25.1364 13.9478 25.7734 13.9478 26.5128C13.9478 27.5479 13.7112 28.4351 13.2379 29.1745C12.7766 29.9024 12.1555 30.4996 11.3747 30.966C10.6057 31.421 9.71256 31.7508 8.69517 31.9556C7.6896 32.1717 6.64263 32.2798 5.55426 32.2798C3.55496 32.2798 1.70354 31.984 0 31.3925Z" fill="#EAB308"/>
</svg>
