<svg width="98" height="93" viewBox="0 0 98 93" fill="none" xmlns="http://www.w3.org/2000/svg">
<rect width="98" height="93" fill="#1E1E1E"/>
<rect width="1440" height="8522" transform="translate(-144 -5268)" fill="white"/>
<rect width="1440" height="8522" transform="translate(-144 -5268)" fill="#13191D"/>
<path d="M0 13C0 5.8203 5.8203 0 13 0H64C82.7777 0 98 15.2223 98 34V76C98 85.3888 90.3888 93 81 93H59C26.4152 93 0 66.5848 0 34V13Z" fill="#A8B0B7"/>
<path d="M27.9232 55.6119C29.3121 54.2298 30.6505 52.859 32.0337 51.5334C33.3385 50.2813 34.9877 49.7273 36.721 49.5408C39.1738 49.2779 41.6406 49.1479 44.1018 48.9642C45.2135 48.8822 46.2495 49.1366 47.1287 49.8291C48.2991 50.7477 49.6039 50.9992 51.0599 50.9653C53.902 50.9003 56.7496 50.9285 59.5944 50.9625C60.2328 50.9709 60.9104 51.0586 61.4957 51.296C62.7669 51.8132 63.4361 53.1021 63.2961 54.4955C63.1645 55.8041 62.2797 56.8584 60.9664 57.1665C60.4288 57.2908 59.8604 57.3135 59.306 57.3163C55.6688 57.3276 52.0315 57.3219 48.3943 57.3248C48.0219 57.3248 47.6299 57.2824 47.2827 57.3813C47.0755 57.4406 46.8011 57.7374 46.7983 57.9324C46.7955 58.1275 47.0531 58.3932 47.2603 58.5119C47.4423 58.6164 47.7139 58.5684 47.9463 58.5684C52.0035 58.5684 56.0608 58.5938 60.118 58.5571C62.5373 58.5345 64.3153 56.8838 64.5561 54.5322C64.5925 54.1648 64.5981 53.7606 64.4861 53.4186C64.2033 52.5622 64.5813 52.0874 65.2869 51.7341C65.6201 51.5673 65.9225 51.3356 66.2613 51.1829C67.5857 50.5865 68.3753 49.6397 68.6861 48.1502C69.0921 46.2112 70.2346 44.7302 72.0742 43.9275C73.6814 43.2265 75.3698 42.9156 77.1254 43.2096C79.3627 43.5855 80.2167 45.0496 79.1891 47.0648C78.2763 48.8568 77.2206 50.5922 76.0614 52.2315C72.8582 56.7623 69.2602 60.9595 65.1861 64.7244C64.9117 64.9787 64.6233 65.219 64.3433 65.4677C63.0525 66.6152 61.6441 67.3812 59.8352 67.4066C57.6932 67.4349 55.5568 67.7062 53.4176 67.8052C49.2707 67.9945 45.1239 68.1246 40.977 68.3054C40.431 68.3281 40.011 68.2433 39.605 67.825C35.7913 63.8877 31.9581 59.9675 28.1305 56.0416C28.0745 55.9709 28.0492 55.872 27.9232 55.6119Z" fill="#13191D"/>
<path d="M53.0228 44.7273C45.3927 44.716 39.227 38.4668 39.2746 30.7874C39.3222 23.1899 45.5299 16.9803 53.0564 17C60.6585 17.0198 66.8913 23.3482 66.8073 30.9654C66.7233 38.6138 60.5885 44.7386 53.0228 44.7273ZM48.0191 25.2984C47.5207 25.2363 47.1595 25.6574 47.3079 26.0333C47.4255 26.3244 47.6439 26.5901 47.8623 26.8219C48.9767 28.0203 50.0939 29.2159 51.2307 30.3945C52.4824 31.6918 53.3924 31.6607 54.6216 30.2871C56.2428 28.4754 57.8612 26.658 59.446 24.8151C59.7932 24.4109 60.6193 23.9531 59.8716 23.3369C59.2584 22.8338 58.8944 23.5856 58.5472 23.9729C56.9204 25.7789 55.3244 27.6161 53.6976 29.4194C52.964 30.2306 52.8072 30.2249 52.0316 29.4194C50.9283 28.2747 49.8559 27.1017 48.7611 25.9514C48.5063 25.6913 48.2095 25.468 48.0191 25.2984ZM52.3592 20.5359C52.404 20.9005 52.4068 21.3245 52.5216 21.7174C52.5692 21.8813 52.852 22.0707 53.0312 22.0735C53.2104 22.0763 53.5408 21.8643 53.5464 21.7371C53.58 20.9203 53.566 20.0978 53.5044 19.281C53.496 19.1651 53.146 18.9785 52.9724 18.9955C52.7932 19.0153 52.5468 19.2188 52.4936 19.3912C52.3928 19.7389 52.4012 20.1176 52.3592 20.5359ZM52.3956 41.0558C52.3956 41.2876 52.3956 41.5193 52.3956 41.7539C52.3928 42.2457 52.4432 42.7771 53.062 42.7601C53.6864 42.7432 53.6584 42.1694 53.6892 41.7059C53.7032 41.4741 53.7116 41.2395 53.6948 41.0106C53.6584 40.4764 53.818 39.8178 53.0816 39.6341C52.6392 39.5239 52.4096 40.0298 52.3956 41.0558ZM63.3213 31.4742C63.3213 31.4714 63.3213 31.4685 63.3213 31.4657C63.6013 31.4657 63.9065 31.5392 64.1529 31.4459C64.4161 31.347 64.7829 31.1181 64.8165 30.9004C64.8893 30.4482 64.5169 30.2673 64.0941 30.2617C63.5817 30.2532 63.0665 30.2588 62.5541 30.2532C62.1425 30.2475 61.7701 30.3691 61.7393 30.8269C61.7057 31.3018 62.0725 31.4516 62.4813 31.4714C62.7613 31.4855 63.0413 31.4742 63.3213 31.4742ZM42.8726 30.2701C42.8726 30.273 42.8726 30.2758 42.8726 30.2786C42.5002 30.2786 42.1138 30.2136 41.7666 30.3041C41.5538 30.3578 41.271 30.6432 41.257 30.8411C41.243 31.0305 41.5258 31.3922 41.7022 31.412C42.391 31.4827 43.0938 31.4855 43.7827 31.4262C43.9731 31.4092 44.3147 31.0191 44.2755 30.9146C44.1831 30.663 43.9423 30.403 43.6986 30.2928C43.4662 30.1882 43.1526 30.2701 42.8726 30.2701Z" fill="#13191D"/>
<path d="M24.4624 54.7246C25.0924 55.1429 25.7364 55.434 26.2096 55.9032C28.3041 57.9835 30.3453 60.1174 32.4117 62.2288C34.8029 64.6765 37.2026 67.1129 39.591 69.5662C41.047 71.0614 41.0302 71.8782 39.5462 73.3762C38.6558 74.275 37.771 75.1795 36.8554 76.0557C35.6177 77.2428 34.6937 77.2484 33.4785 76.0133C29.9617 72.4379 26.47 68.8398 22.9644 65.2502C21.948 64.2101 20.9204 63.1841 19.9124 62.1383C18.7167 60.9004 18.6943 59.9309 19.8564 58.724C20.8336 57.7121 21.8164 56.7059 22.8496 55.7534C23.278 55.3577 23.8408 55.1118 24.4624 54.7246ZM23.3592 58.9953C23.2024 59.1395 22.9644 59.261 22.97 59.3713C22.9868 59.668 23.0176 60.044 23.1996 60.2418C24.076 61.2028 25.0028 62.1186 25.9156 63.0456C26.2012 63.3367 26.526 63.5063 26.8844 63.1813C27.2456 62.8534 27.1168 62.5058 26.8284 62.209C25.8904 61.2424 24.9468 60.2785 23.9892 59.3289C23.838 59.1791 23.6 59.1169 23.3592 58.9953Z" fill="#13191D"/>
</svg>
