<svg width="18" height="15" viewBox="0 0 18 15" fill="none" xmlns="http://www.w3.org/2000/svg">
<path d="M9.21 0.5C10.2133 0.5 11.1758 0.523334 12.0975 0.57L12.535 0.5875C14.075 0.6575 15.1133 0.768333 15.65 0.92C16.07 1.03667 16.4317 1.2525 16.735 1.5675C17.0383 1.8825 17.2425 2.25583 17.3475 2.6875C17.4992 3.27083 17.61 4.14 17.68 5.295C17.715 5.97167 17.7383 6.66 17.75 7.36V7.64C17.7383 8.34 17.715 9.02833 17.68 9.705C17.61 10.86 17.4992 11.7292 17.3475 12.3125C17.2425 12.7442 17.0383 13.1175 16.735 13.4325C16.4317 13.7475 16.07 13.9633 15.65 14.08C15.1133 14.2317 14.075 14.3425 12.535 14.4125L12.0975 14.43C11.1758 14.465 10.2133 14.4883 9.21 14.5H8.79C7.705 14.4883 6.6725 14.465 5.6925 14.43C4.02417 14.36 2.91 14.2433 2.35 14.08C1.93 13.9633 1.56833 13.7475 1.265 13.4325C0.961667 13.1175 0.7575 12.7442 0.6525 12.3125C0.500833 11.7292 0.39 10.86 0.32 9.705C0.285 9.02833 0.261667 8.34 0.25 7.64V7.36C0.261667 6.66 0.285 5.97167 0.32 5.295C0.39 4.14 0.500833 3.27083 0.6525 2.6875C0.7575 2.25583 0.961667 1.8825 1.265 1.5675C1.56833 1.2525 1.93 1.03667 2.35 0.92C2.91 0.756666 4.02417 0.64 5.6925 0.57C6.66083 0.535 7.69333 0.511666 8.79 0.5H9.21ZM7.25 4.4375V10.5625L12.5 7.5L7.25 4.4375Z" fill="currentColor"/>
</svg>
